<svg xmlns="http://www.w3.org/2000/svg" xmlns:xlink="http://www.w3.org/1999/xlink" width="600" height="600" viewBox="0 0 299.02 239.54"><defs><style>.cls-1{fill:none;}.cls-2{fill:#999b9e;}.cls-3{fill:#221e1f;}.cls-4{clip-path:url(#clip-path);}.cls-5{opacity:0.4;}.cls-6{fill:url(#radial-gradient);}.cls-7{fill:url(#radial-gradient-2);}.cls-8{fill:url(#radial-gradient-3);}.cls-9{fill:url(#radial-gradient-4);}.cls-10{fill:url(#radial-gradient-5);}.cls-11{fill:url(#radial-gradient-6);}.cls-12{fill:url(#radial-gradient-7);}.cls-13{fill:url(#radial-gradient-8);}.cls-14{fill:url(#radial-gradient-9);}.cls-15{fill:url(#radial-gradient-10);}.cls-16{fill:url(#radial-gradient-11);}.cls-17{fill:url(#radial-gradient-12);}.cls-18{fill:url(#radial-gradient-13);}.cls-19{fill:url(#radial-gradient-14);}.cls-20{fill:url(#radial-gradient-15);}.cls-21{fill:url(#radial-gradient-16);}.cls-22{fill:url(#radial-gradient-17);}.cls-23{fill:url(#radial-gradient-18);}.cls-24{fill:url(#radial-gradient-19);}.cls-25{fill:url(#radial-gradient-20);}.cls-26{fill:url(#radial-gradient-21);}.cls-27{fill:url(#radial-gradient-22);}.cls-28{fill:url(#radial-gradient-23);}.cls-29{fill:url(#radial-gradient-24);}.cls-30{fill:url(#radial-gradient-25);}.cls-31{fill:url(#radial-gradient-26);}.cls-32{fill:url(#radial-gradient-27);}.cls-33{fill:url(#radial-gradient-28);}.cls-34{fill:url(#radial-gradient-29);}.cls-35{fill:url(#radial-gradient-30);}.cls-36{fill:url(#radial-gradient-31);}.cls-37{fill:url(#radial-gradient-32);}.cls-38{fill:url(#radial-gradient-33);}.cls-39{fill:url(#radial-gradient-34);}.cls-40{fill:url(#radial-gradient-35);}.cls-41{fill:url(#radial-gradient-36);}.cls-42{fill:url(#radial-gradient-37);}.cls-43{fill:url(#radial-gradient-38);}.cls-44{fill:url(#radial-gradient-39);}.cls-45{fill:url(#radial-gradient-40);}.cls-46{fill:url(#radial-gradient-41);}.cls-47{fill:url(#radial-gradient-42);}.cls-48{fill:url(#radial-gradient-43);}.cls-49{fill:url(#radial-gradient-44);}.cls-50{fill:url(#radial-gradient-45);}.cls-51{fill:url(#radial-gradient-46);}.cls-52{fill:url(#radial-gradient-47);}.cls-53{fill:url(#radial-gradient-48);}.cls-54{fill:url(#radial-gradient-49);}.cls-55{fill:url(#radial-gradient-50);}.cls-56{fill:url(#radial-gradient-51);}.cls-57{fill:url(#radial-gradient-52);}.cls-58{fill:url(#radial-gradient-53);}.cls-59{fill:url(#radial-gradient-54);}.cls-60,.cls-63,.cls-64,.cls-65{fill-rule:evenodd;}.cls-60{fill:url(#radial-gradient-55);}.cls-61,.cls-65{fill:#fff;}.cls-62,.cls-63{fill:#919396;}.cls-66{fill:#c2c4c5;}</style><clipPath id="clip-path"><path class="cls-1" d="M285.06,73.71h-77A62.59,62.59,0,0,0,91,73.71H14a12,12,0,0,0-12,12V194.75a12,12,0,0,0,12,12h271.1a12,12,0,0,0,12-12V85.68A12,12,0,0,0,285.06,73.71Z"/></clipPath><radialGradient id="radial-gradient" cx="79.26" cy="99.37" r="49.39" gradientUnits="userSpaceOnUse"><stop offset="0" stop-color="#919396"/><stop offset="0.16" stop-color="#8d8f92" stop-opacity="0.97"/><stop offset="0.32" stop-color="#818385" stop-opacity="0.89"/><stop offset="0.49" stop-color="#6d6e71" stop-opacity="0.75"/><stop offset="0.66" stop-color="#515254" stop-opacity="0.56"/><stop offset="0.83" stop-color="#2d2d2e" stop-opacity="0.31"/><stop offset="1" stop-color="#010101" stop-opacity="0.01"/><stop offset="1" stop-opacity="0"/></radialGradient><radialGradient id="radial-gradient-2" cx="76.83" cy="126.84" r="49.42" xlink:href="#radial-gradient"/><radialGradient id="radial-gradient-3" cx="77.59" cy="105.96" r="49.51" xlink:href="#radial-gradient"/><radialGradient id="radial-gradient-4" cx="76.83" cy="112.72" r="49.42" xlink:href="#radial-gradient"/><radialGradient id="radial-gradient-5" cx="79.26" cy="140.19" r="49.39" xlink:href="#radial-gradient"/><radialGradient id="radial-gradient-6" cx="89.5" cy="158.18" r="47.9" xlink:href="#radial-gradient"/><radialGradient id="radial-gradient-7" cx="85.26" cy="152.56" r="48.57" xlink:href="#radial-gradient"/><radialGradient id="radial-gradient-8" cx="81.82" cy="146.54" r="49.07" xlink:href="#radial-gradient"/><radialGradient id="radial-gradient-9" cx="77.59" cy="133.6" r="49.51" xlink:href="#radial-gradient"/><radialGradient id="radial-gradient-10" cx="136.5" cy="58.49" r="41.71" xlink:href="#radial-gradient"/><radialGradient id="radial-gradient-11" cx="106.57" cy="67.63" r="45.22" xlink:href="#radial-gradient"/><radialGradient id="radial-gradient-12" cx="113.46" cy="64.27" r="44.24" xlink:href="#radial-gradient"/><radialGradient id="radial-gradient-13" cx="120.81" cy="61.61" r="43.29" xlink:href="#radial-gradient"/><radialGradient id="radial-gradient-14" cx="81.82" cy="93.02" r="49.07" xlink:href="#radial-gradient"/><radialGradient id="radial-gradient-15" cx="128.52" cy="59.68" r="42.43" xlink:href="#radial-gradient"/><radialGradient id="radial-gradient-16" cx="89.5" cy="81.38" r="47.9" xlink:href="#radial-gradient"/><radialGradient id="radial-gradient-17" cx="94.52" cy="163.32" r="47.09" xlink:href="#radial-gradient"/><radialGradient id="radial-gradient-18" cx="94.52" cy="76.23" r="47.09" xlink:href="#radial-gradient"/><radialGradient id="radial-gradient-19" cx="100.23" cy="71.63" r="46.19" xlink:href="#radial-gradient"/><radialGradient id="radial-gradient-20" cx="85.26" cy="87" r="48.57" xlink:href="#radial-gradient"/><radialGradient id="radial-gradient-21" cx="128.52" cy="179.88" r="42.43" xlink:href="#radial-gradient"/><radialGradient id="radial-gradient-22" cx="136.5" cy="181.07" r="41.71" xlink:href="#radial-gradient"/><radialGradient id="radial-gradient-23" cx="149.17" cy="58.06" r="41.55" xlink:href="#radial-gradient"/><radialGradient id="radial-gradient-24" cx="100.23" cy="167.93" r="46.19" xlink:href="#radial-gradient"/><radialGradient id="radial-gradient-25" cx="120.81" cy="177.95" r="43.29" xlink:href="#radial-gradient"/><radialGradient id="radial-gradient-26" cx="106.57" cy="171.93" r="45.22" xlink:href="#radial-gradient"/><radialGradient id="radial-gradient-27" cx="113.46" cy="175.29" r="44.23" xlink:href="#radial-gradient"/><radialGradient id="radial-gradient-28" cx="203.83" cy="76.21" r="47.09" xlink:href="#radial-gradient"/><radialGradient id="radial-gradient-29" cx="216.52" cy="93" r="49.07" xlink:href="#radial-gradient"/><radialGradient id="radial-gradient-30" cx="213.09" cy="86.98" r="48.57" xlink:href="#radial-gradient"/><radialGradient id="radial-gradient-31" cx="220.76" cy="105.94" r="49.51" xlink:href="#radial-gradient"/><radialGradient id="radial-gradient-32" cx="219.09" cy="99.35" r="49.39" xlink:href="#radial-gradient"/><radialGradient id="radial-gradient-33" cx="221.52" cy="112.69" r="49.42" xlink:href="#radial-gradient"/><radialGradient id="radial-gradient-34" cx="169.82" cy="59.65" r="42.43" xlink:href="#radial-gradient"/><radialGradient id="radial-gradient-35" cx="198.11" cy="71.61" r="46.19" xlink:href="#radial-gradient"/><radialGradient id="radial-gradient-36" cx="161.84" cy="58.47" r="41.71" xlink:href="#radial-gradient"/><radialGradient id="radial-gradient-37" cx="177.54" cy="61.59" r="43.29" xlink:href="#radial-gradient"/><radialGradient id="radial-gradient-38" cx="184.88" cy="64.25" r="44.24" xlink:href="#radial-gradient"/><radialGradient id="radial-gradient-39" cx="191.77" cy="67.6" r="45.22" xlink:href="#radial-gradient"/><radialGradient id="radial-gradient-40" cx="208.84" cy="81.36" r="47.9" xlink:href="#radial-gradient"/><radialGradient id="radial-gradient-41" cx="216.52" cy="146.52" r="49.07" xlink:href="#radial-gradient"/><radialGradient id="radial-gradient-42" cx="213.09" cy="152.54" r="48.57" xlink:href="#radial-gradient"/><radialGradient id="radial-gradient-43" cx="203.83" cy="163.3" r="47.09" xlink:href="#radial-gradient"/><radialGradient id="radial-gradient-44" cx="208.84" cy="158.16" r="47.9" xlink:href="#radial-gradient"/><radialGradient id="radial-gradient-45" cx="221.52" cy="126.82" r="49.42" xlink:href="#radial-gradient"/><radialGradient id="radial-gradient-46" cx="220.76" cy="133.58" r="49.51" xlink:href="#radial-gradient"/><radialGradient id="radial-gradient-47" cx="219.09" cy="140.17" r="49.39" xlink:href="#radial-gradient"/><radialGradient id="radial-gradient-48" cx="169.82" cy="179.86" r="42.43" xlink:href="#radial-gradient"/><radialGradient id="radial-gradient-49" cx="149.17" cy="181.47" r="41.55" xlink:href="#radial-gradient"/><radialGradient id="radial-gradient-50" cx="177.54" cy="177.92" r="43.29" xlink:href="#radial-gradient"/><radialGradient id="radial-gradient-51" cx="161.84" cy="181.04" r="41.71" xlink:href="#radial-gradient"/><radialGradient id="radial-gradient-52" cx="198.11" cy="167.9" r="46.19" xlink:href="#radial-gradient"/><radialGradient id="radial-gradient-53" cx="184.88" cy="175.26" r="44.23" xlink:href="#radial-gradient"/><radialGradient id="radial-gradient-54" cx="191.77" cy="171.91" r="45.22" xlink:href="#radial-gradient"/><radialGradient id="radial-gradient-55" cx="149.17" cy="99.22" r="40.92" gradientUnits="userSpaceOnUse"><stop offset="0"/><stop offset="0.86" stop-opacity="0.53"/><stop offset="1" stop-opacity="0"/></radialGradient></defs><title>Asset 1</title><g id="Layer_2" data-name="Layer 2"><g id="Layer_3" data-name="Layer 3"><path class="cls-2" d="M149.51,31.2a64,64,0,0,0-37,11.73A65.18,65.18,0,0,0,89.59,71.71H14a14,14,0,0,0-14,14V194.75a14,14,0,0,0,14,14h271.1a14,14,0,0,0,14-14V85.68a14,14,0,0,0-14-14H209.44a65.25,65.25,0,0,0-22.88-28.78A64.06,64.06,0,0,0,149.51,31.2Z"/><path class="cls-3" d="M149.51,33.2a62.79,62.79,0,0,1,58.57,40.51h77a12,12,0,0,1,12,12V194.75a12,12,0,0,1-12,12H14a12,12,0,0,1-12-12V85.68a12,12,0,0,1,12-12H91A62.78,62.78,0,0,1,149.51,33.2"/><g class="cls-4"><g class="cls-5"><polygon class="cls-6" points="14.9 80.63 11.97 87.78 146.54 118.1 14.9 80.63"/><polygon class="cls-7" points="7.19 125.28 8.11 132.8 146.47 120.89 7.19 125.28"/><polygon class="cls-8" points="10.62 93.53 8.68 100.92 146.49 118.39 10.62 93.53"/><polygon class="cls-9" points="8.11 106.76 7.19 114.28 146.47 118.67 8.11 106.76"/><polygon class="cls-10" points="11.97 151.78 14.9 158.93 146.54 121.46 11.97 151.78"/><polygon class="cls-11" points="32.08 188.18 37.68 194.11 146.93 122.25 32.08 188.18"/><polygon class="cls-12" points="23.75 176.7 28.51 183.13 146.76 122 23.75 176.7"/><polygon class="cls-13" points="17.02 164.52 20.89 171.35 146.63 121.73 17.02 164.52"/><polygon class="cls-14" points="8.68 138.64 10.62 146.02 146.49 121.17 8.68 138.64"/><polygon class="cls-15" points="133.16 0.81 124.17 1.66 148.83 116.18 133.16 0.81"/><polygon class="cls-16" points="73.18 18.58 65.53 22.63 147.61 116.67 73.18 18.58"/><polygon class="cls-17" points="87.18 12.04 79.03 15.34 147.89 116.51 87.18 12.04"/><polygon class="cls-18" points="101.96 6.86 93.43 9.37 148.19 116.37 101.96 6.86"/><polygon class="cls-19" points="20.89 68.21 17.02 75.04 146.63 117.83 20.89 68.21"/><polygon class="cls-20" points="117.36 3.1 108.54 4.79 148.5 116.26 117.36 3.1"/><polygon class="cls-21" points="37.68 45.45 32.08 51.38 146.93 117.31 37.68 45.45"/><polygon class="cls-22" points="41.91 198.8 48.28 204.17 147.13 122.48 41.91 198.8"/><polygon class="cls-23" points="48.28 35.39 41.91 40.76 147.13 117.08 48.28 35.39"/><polygon class="cls-24" points="60.16 26.4 53.11 31.14 147.35 116.86 60.16 26.4"/><polygon class="cls-25" points="28.51 56.43 23.75 62.85 146.76 117.56 28.51 56.43"/><polygon class="cls-26" points="108.54 234.77 117.36 236.46 148.5 123.3 108.54 234.77"/><polygon class="cls-27" points="124.17 237.9 133.16 238.75 148.83 123.38 124.17 237.9"/><polygon class="cls-28" points="149.17 116.11 158.22 0 149.17 0 149.17 0.02 140.12 0.02 149.17 116.13 149.17 116.11"/><polygon class="cls-29" points="53.11 208.42 60.16 213.16 147.35 122.7 53.11 208.42"/><polygon class="cls-30" points="93.43 230.19 101.96 232.7 148.19 123.19 93.43 230.19"/><polygon class="cls-31" points="65.53 216.93 73.18 220.98 147.61 122.89 65.53 216.93"/><polygon class="cls-32" points="79.03 224.22 87.18 227.52 147.89 123.05 79.03 224.22"/><polygon class="cls-33" points="256.43 40.74 250.07 35.37 151.22 117.06 256.43 40.74"/><polygon class="cls-34" points="281.33 75.02 277.46 68.19 151.71 117.81 281.33 75.02"/><polygon class="cls-35" points="274.6 62.83 269.83 56.41 151.58 117.54 274.6 62.83"/><polygon class="cls-36" points="289.66 100.89 287.72 93.51 151.86 118.36 289.66 100.89"/><polygon class="cls-37" points="286.37 87.76 283.45 80.61 151.8 118.08 286.37 87.76"/><polygon class="cls-38" points="291.16 114.25 290.23 106.74 151.87 118.65 291.16 114.25"/><polygon class="cls-39" points="189.81 4.76 180.99 3.07 149.84 116.24 189.81 4.76"/><polygon class="cls-40" points="245.23 31.11 238.18 26.38 150.99 116.84 245.23 31.11"/><polygon class="cls-41" points="174.18 1.64 165.18 0.79 149.51 116.16 174.18 1.64"/><polygon class="cls-42" points="204.92 9.35 196.38 6.83 150.16 116.34 204.92 9.35"/><polygon class="cls-43" points="219.31 15.32 211.17 12.02 150.46 116.48 219.31 15.32"/><polygon class="cls-44" points="232.81 22.6 225.16 18.56 150.74 116.65 232.81 22.6"/><polygon class="cls-45" points="266.26 51.36 260.66 45.42 151.41 117.29 266.26 51.36"/><polygon class="cls-46" points="277.46 171.33 281.33 164.5 151.71 121.71 277.46 171.33"/><polygon class="cls-47" points="269.83 183.1 274.6 176.68 151.58 121.97 269.83 183.1"/><polygon class="cls-48" points="250.07 204.14 256.43 198.77 151.22 122.46 250.07 204.14"/><polygon class="cls-49" points="260.66 194.09 266.26 188.16 151.41 122.22 260.66 194.09"/><polygon class="cls-50" points="290.23 132.77 291.16 125.26 151.87 120.86 290.23 132.77"/><polygon class="cls-51" points="287.72 146 289.66 138.62 151.86 121.15 287.72 146"/><polygon class="cls-52" points="283.45 158.91 286.37 151.75 151.8 121.43 283.45 158.91"/><polygon class="cls-53" points="180.99 236.44 189.81 234.75 149.84 123.28 180.99 236.44"/><polygon class="cls-54" points="149.17 123.43 140.12 239.54 149.17 239.54 149.17 239.52 158.22 239.52 149.17 123.41 149.17 123.43"/><polygon class="cls-55" points="196.38 232.68 204.92 230.17 150.16 123.17 196.38 232.68"/><polygon class="cls-56" points="165.18 238.73 174.18 237.88 149.51 123.36 165.18 238.73"/><polygon class="cls-57" points="238.18 213.13 245.23 208.4 150.99 122.67 238.18 213.13"/><polygon class="cls-58" points="211.17 227.5 219.31 224.2 150.46 123.03 211.17 227.5"/><polygon class="cls-59" points="225.16 220.95 232.81 216.91 150.74 122.86 225.16 220.95"/></g></g><path class="cls-60" d="M190.09,99.21a40.92,40.92,0,1,0-40.92,40.92A40.92,40.92,0,0,0,190.09,99.21Z"/><path class="cls-61" d="M43.06,129a10.08,10.08,0,0,0-5.17,1.79A8,8,0,0,0,34.71,137a9.65,9.65,0,0,0,1.84,5.37c.94,1.16,3.31,3.61,3.31,3.61a.33.33,0,0,1-.25.55H18V156H44a8.5,8.5,0,0,0,6.19-14.19c-.58-.7-2.89-3.13-3.37-3.64a.25.25,0,0,1-.09-.2.29.29,0,0,1,.17-.26H59.4V156H69V137.8H80.7V129Z"/><path class="cls-61" d="M134.76,146.46c-1.61,0-1.72-.65-1.72-.74s.2-.27.2-.27a15.74,15.74,0,0,0,1.83-1.25,7.75,7.75,0,0,0,2.94-6.33,8.13,8.13,0,0,0-2.91-6.49A10.68,10.68,0,0,0,129,129h-18.9v26.9a.16.16,0,0,0,.16.16H120.8V148.5c0-.14.2,0,.2,0l5.48,5.5a8.4,8.4,0,0,0,5.17,2h16.18v-9.58Zm-7.78-6.4h-5.91a.22.22,0,0,1-.15-.22v-3a.22.22,0,0,1,.16-.22h5.41a1.76,1.76,0,0,1,1.9,1.76A1.65,1.65,0,0,1,127,140.06Z"/><path class="cls-61" d="M100.09,129.22a.35.35,0,0,0-.31-.24H85.25a.32.32,0,0,0-.3.24s-8,26.53-8,26.58a.24.24,0,0,0,.24.24h9.61a.26.26,0,0,0,.15-.19L88,152.28a.25.25,0,0,1,.22-.16h8.86a.27.27,0,0,1,.22.16l1.14,3.57a.29.29,0,0,0,.15.19h9.46a.24.24,0,0,0,.24-.24S100.09,129.22,100.09,129.22Zm-5.33,15.54h-4a.27.27,0,0,1-.24-.3c0-.06,2.11-6.85,2.11-6.85.07-.25.1-.26.11-.26h0s0,0,.11.26c0,0,2.11,6.79,2.11,6.85A.28.28,0,0,1,94.76,144.76Z"/><path class="cls-61" d="M211.28,129.26a.34.34,0,0,0-.3-.25H196.44a.35.35,0,0,0-.3.25s-8,26.52-8,26.57a.24.24,0,0,0,.23.24H198a.2.2,0,0,0,.15-.17l1.12-3.58a.27.27,0,0,1,.22-.16h8.86a.25.25,0,0,1,.22.16l1.15,3.58a.25.25,0,0,0,.15.18h9.45a.24.24,0,0,0,.24-.24S211.28,129.26,211.28,129.26ZM206,144.79h-4a.29.29,0,0,1-.24-.3c0-.06,2.11-6.84,2.11-6.84.08-.26.09-.27.11-.27h0s0,0,.12.27c0,0,2.11,6.78,2.11,6.84A.3.3,0,0,1,206,144.79Z"/><path class="cls-61" d="M267,137.78h13.38V129h-17.2A10.08,10.08,0,0,0,258,130.8,7.94,7.94,0,0,0,254.8,137a9.65,9.65,0,0,0,1.84,5.37c.94,1.16,3.31,3.59,3.31,3.59a.33.33,0,0,1,.08.22.32.32,0,0,1-.33.32H246.45c-1.6,0-1.72-.65-1.72-.74s.2-.27.2-.27a15.24,15.24,0,0,0,1.84-1.25,7.76,7.76,0,0,0,2.93-6.34,8.08,8.08,0,0,0-2.91-6.48,10.53,10.53,0,0,0-6.08-2.39h-18.9s0,26.88,0,26.89a.15.15,0,0,0,.16.15h10.52v-7.54c0-.13.2,0,.2,0l5.49,5.51a8.33,8.33,0,0,0,5.16,2h20.73a8.31,8.31,0,0,0,6-2.46,8.75,8.75,0,0,0,.16-11.71c-.58-.7-2.9-3.14-3.38-3.65a.28.28,0,0,1,.08-.46Zm-28.3,2.31h-5.9a.22.22,0,0,1-.16-.22v-3a.24.24,0,0,1,.16-.23h5.42a1.77,1.77,0,0,1,1.9,1.77A1.66,1.66,0,0,1,238.67,140.09Z"/><path class="cls-61" d="M183.3,156.06c.07,0,.12-.05.15-.13s8.14-26.73,8.14-26.76a.15.15,0,0,0-.11-.16h-10c-.05,0-.08,0-.09.1l-2.08,6.95c0,.06,0,.1-.09.1a.12.12,0,0,1-.1-.1l-2.17-7a.12.12,0,0,0-.1-.09H165.73a.1.1,0,0,0-.07.07l-2,7a.09.09,0,0,1-.09.1.1.1,0,0,1-.09-.08l-2.07-7a.1.1,0,0,0-.07-.09H150.67a.16.16,0,0,0-.16.16.2.2,0,0,0,0,.05l8.26,26.72a.16.16,0,0,0,.14.13h8.89a.2.2,0,0,0,.12-.13L171,146h0c0-.06,0-.09.1-.09s.08,0,.09.09l3,10a.14.14,0,0,0,.12.09Z"/><polygon class="cls-61" points="272.46 154.52 272.46 154.73 272.98 154.73 272.98 156.08 273.19 156.08 273.19 154.72 273.71 154.72 273.71 154.52 272.46 154.52"/><polygon class="cls-61" points="273.88 154.52 273.88 156.08 274.08 156.08 274.08 154.84 274.49 156.08 274.72 156.08 275.13 154.84 275.13 156.08 275.34 156.08 275.34 154.52 275.05 154.52 274.6 155.79 274.15 154.52 273.88 154.52"/><path class="cls-62" d="M279.44,120.71H179.65v-1.46s72.13-.09,78,0C276.46,119.48,279.44,120.71,279.44,120.71Z"/><path class="cls-62" d="M161.85,64.25a37.12,37.12,0,0,1,18.78,16.92,35.27,35.27,0,0,1-2.34,39.55h1.82a36.82,36.82,0,0,0-18.26-56.47Z"/><path class="cls-62" d="M18.9,120.71h99.79v-1.46s-72.13-.09-78,0C21.89,119.48,18.9,120.71,18.9,120.71Z"/><path class="cls-62" d="M136.49,64.25a37.12,37.12,0,0,0-18.78,16.92,35.3,35.3,0,0,0,2.35,39.55h-1.83a36.82,36.82,0,0,1,18.26-56.47Z"/><path class="cls-61" d="M29.79,164.69c10.38,0,12.09.63,12.09,6.67v4.5H31.38v-4.3c0-1.15-.31-1.59-1.71-1.59s-1.34.6-1.34,1.59v18.88c0,1.12.36,1.63,1.52,1.63,1,0,1.53-.39,1.53-1.07v-7.55h10.5v7.19c0,6-1.47,6.76-12,6.76-10.31,0-12-.68-12-6.76V171.36C17.83,165.48,19,164.69,29.79,164.69Z"/><path class="cls-61" d="M46.09,164.89H62.75v5.2H56.52v6.72h6.23v5.25H56.52v9.85h6.23v5.25H46.09Z"/><path class="cls-61" d="M67,164.89H77.46v27h6.22v5.25H67Z"/><path class="cls-61" d="M87.65,164.89h16.66v5.2H98.08v6.72h6.23v5.25H98.08v9.85h6.23v5.25H87.65Z"/><path class="cls-61" d="M108.58,164.89h12c10.56,0,12.09,1,12.09,6.67v3.38c0,2.94-1.34,4.41-4.7,4.89,3.72.92,4.7,2.31,4.7,5.37v5.24c0,5.69-1.41,6.72-12,6.72h-12Zm13.55,6.79c0-1.27-.31-1.59-2.26-1.59h-.79v6.76c.3,0,.67,0,.91,0,1.47,0,2.14-.28,2.14-1v-4.18Zm0,12.56c0-1.27-.31-1.59-2.26-1.59h-.79v9.26c.3,0,.67,0,.91,0,1.47,0,2.14-.27,2.14-1v-6.68Z"/><path class="cls-61" d="M136.84,164.89h12c10.56,0,12.08,1,12.08,6.67v3.34c0,3.62-.24,5.45-4.88,6.52,3.79.72,4.88,2.19,4.88,5.25v10.49H150.39V186.07c0-1.31-.49-1.71-2.44-1.71h-.62v12.8H136.84Zm13.55,7.35v-.4c0-1.35-.06-1.75-2.14-1.75h-.92v8.27c.37,0,.68,0,1,0,1.65,0,2.08-.32,2.08-1.27v-4.89Z"/><path class="cls-61" d="M170.1,164.89h12.69l6.41,32.27h-9.89l-.79-6.36h-4.21l-.79,6.36h-9.77ZM178,185.55l-1.58-12.44-1.59,12.44Z"/><path class="cls-61" d="M194.64,170.21h-5.37v-5.32h21.18v5.32h-5.37v26.95H194.64Z"/><path class="cls-61" d="M213.56,164.89H224v32.27H213.56Z"/><path class="cls-61" d="M240.17,164.69c10.38,0,12.09.67,12.09,6.67v19.28c0,6-1.47,6.76-12,6.76-10.31,0-12-.68-12-6.76V171.36C228.21,165.52,229.37,164.69,240.17,164.69Zm-1.46,25.75c0,1.12.3,1.63,1.52,1.63,1,0,1.53-.35,1.53-1V171.56c0-1.15-.31-1.59-1.71-1.59-.86,0-1.34.36-1.34,1v19.47Z"/><path class="cls-61" d="M256.46,164.89h9.77l5.19,16.53V164.89h9.09v32.27h-9.76l-5.25-15.82v15.82h-9Z"/><path class="cls-63" d="M176.51,99.46a27.34,27.34,0,1,0-27.34,27.33A27.34,27.34,0,0,0,176.51,99.46Z"/><path class="cls-64" d="M173.92,98c0-14.78-11.08-26.75-24.75-26.75s-24.75,12-24.75,26.75,11.08,26.75,24.75,26.75S173.92,112.73,173.92,98Z"/><polygon class="cls-65" points="149.43 47.87 150.75 100.04 154.56 98.09 151.61 102.15 163.27 103.38 151.61 104.61 155.17 108.64 150.75 105.53 149.43 120.04 148.11 105.53 144.06 108.09 147.19 104.61 135.75 103.38 147.19 102.15 144.3 98.09 148.11 100.04 149.43 47.87"/><polygon class="cls-65" points="151.08 102.4 155.44 100.57 151.81 103.14 151.08 102.4"/><polygon class="cls-65" points="151.08 104.36 155.44 106.19 151.81 103.62 151.08 104.36"/><polygon class="cls-65" points="147.95 104.36 143.58 106.19 147.22 103.62 147.95 104.36"/><polygon class="cls-65" points="147.95 102.4 143.58 100.57 147.22 103.14 147.95 102.4"/><path class="cls-66" d="M30.43,113.25l-.85-3.52H25l-.83,3.52H20.82l4.46-15.84h4.23l4.4,15.84Zm-4.83-6H29l-1.64-6.87Z"/><path class="cls-66" d="M35.33,113.25V97.41h4.45l3,8.22a43.37,43.37,0,0,1,1.66,5.5c-.08-.68-.14-1.4-.19-2.15,0-.24,0-1-.06-2.44L44,97.41h3.07v15.84H42.75l-3.22-8.67c-.45-1.23-1-3-1.6-5.35.15,1.91.24,3.43.26,4.58l.2,9.44Z"/><path class="cls-66" d="M58.11,113.25l-.85-3.52H52.67l-.84,3.52H48.5L53,97.41h4.22l4.4,15.84Zm-4.83-6h3.38L55,100.42Z"/><path class="cls-66" d="M66.33,113.25H63V97.41h3.31v6.16h3.61V97.41h3.3v15.84h-3.3v-7H66.33Z"/><path class="cls-66" d="M75.84,113.25V97.41H84.4v2.45H79.18v3.78H84v2.44h-4.8v4.61h5.41v2.56Z"/><path class="cls-66" d="M86.63,113.25V97.41h3.23v15.84Z"/><path class="cls-66" d="M92.47,113.25V97.41h5.11l2.23,9.71a26.55,26.55,0,0,1,.48,3.28,26.68,26.68,0,0,1,.44-3.31l2-9.68H108v15.84H105l.14-10.83c0-1.68.07-3,.15-4l-3.3,14.8H98.78L95.3,98.43c.1,1,.17,2.27.2,3.91,0,0,0,.06,0,.08l.19,10.83Z"/><path class="cls-66" d="M197,113.87V111c9.63-6.92,11.64-7.72,11.64-9.77,0-.83-.56-1.61-2.32-1.61-2.53,0-2.67,1.3-2.67,2.36H197.5c-.43-3.07,2.76-4.77,8.4-4.77,5.3,0,8.93,1.16,8.93,4.25,0,3.71-8,7.91-11.33,9.9h11.64v2.55Z"/><path class="cls-66" d="M236,105.54c0,5.17-.61,8.5-8.84,8.5s-8.83-3.33-8.83-8.5c0-6.31,1.31-8.41,8.83-8.41S236,99.23,236,105.54Zm-11.51,0c0,5,.23,6,2.67,6s2.68-1.07,2.68-6,0-6-2.68-6S224.47,100.51,224.47,105.58Z"/><path class="cls-66" d="M239.08,113.87V111c9.63-6.92,11.64-7.72,11.64-9.77,0-.83-.57-1.61-2.32-1.61-2.54,0-2.67,1.3-2.67,2.36h-6.17c-.43-3.07,2.76-4.77,8.4-4.77,5.3,0,8.93,1.16,8.93,4.25,0,3.71-8,7.91-11.33,9.9H257.2v2.55Z"/><path class="cls-66" d="M277.33,105.54c0,5.17-.62,8.5-8.84,8.5s-8.84-3.33-8.84-8.5c0-6.31,1.31-8.41,8.84-8.41S277.33,99.23,277.33,105.54Zm-11.51,0c0,5,.22,6,2.67,6s2.67-1.07,2.67-6-.05-6-2.67-6S265.82,100.51,265.82,105.58Z"/></g></g></svg>