<svg xmlns="http://www.w3.org/2000/svg" width="861.67" height="388.19" viewBox="0 0 861.67 388.19"><defs><style>.cls-1,.cls-2{fill:#466ab3;}.cls-1{stroke:#466ab3;stroke-width:1.67px;}.cls-3{fill:#010101;}.cls-4{font-size:54px;fill:#fff;font-family:SerifGothicStd-Heavy, ITC Serif Gothic Std;font-weight:800;letter-spacing:0.28em;}.cls-5{letter-spacing:0.22em;}</style></defs><title>star_wars_logo</title><g id="Layer_1" data-name="Layer 1"><g id="layer2"><g id="g5593"><path id="path5595" class="cls-1" d="M499.4,62.86Q474,136.41,448.63,210h55.21q3.12-10,6.23-20l59.25.26q3.18,10.4,6.35,20.8l54.56.3q-26.49-76.63-53-153.27H501.06Zm6.77,0h67.66q24.84,71.84,49.67,143.67l-44.29-.24q-3.16-10.41-6.35-20.8l-66.3-.3-6.24,20h-45L504.47,62.81h1.7Zm32.62,33.41c-6.54,18.15-13.12,36.3-19.37,54.56l41.05-.05q-9.91-29.53-20.05-59-.81,2.22-1.63,4.46Zm3.72,16.36q5.68,16.68,11.33,33.37l-27.75,0q7-20,14.21-39.89l2.21,6.48Z" transform="translate(-66.94 -56.07)"/></g><g id="g5577"><path id="path5579" class="cls-2" d="M115.61,299.79Q139.83,371,164.08,442.25h37.19q12.58-34.5,25.16-69,12.06,35,24.19,70.06h37.54q26.18-76.24,52.34-152.5H286Q278,314.26,269.8,337.64c-5.44-15.76-10.77-31.55-16.16-47.33H199.52Q191.32,313.65,183.1,337q-8.28-23.31-16.52-46.64l-54.2,0Zm6.79-4.7,40.79,0c6.63,18.71,13.21,37.44,20,56.11q9.87-28.07,19.75-56.14h48c5,19,12.24,37.78,19,56.39,6.65-18.54,13.06-37.22,19.52-55.89H333.8L284.75,438.53H254c-9.17-26.54-18.38-53.07-27.44-79.65l-28.65,78.59H167.5L119.06,295.09Z" transform="translate(-66.94 -56.07)"/></g><g id="g5581"><path id="path5583" class="cls-1" d="M763.86,289.8c-19.24-.41-38.83,11.94-43.33,31.3-4.28,15.21,1,31.62,11.86,42.77,7.17,7.84,14.78,15.6,20.73,24.59-27.69,2.19-55.56.68-83.31.86-6.74-.39-14.67,1.11-19.26-5.14,15.23-8.4,27.94-23.23,28.84-41.22-.14-29.39-29.1-54.12-58.08-51.57H524.44q.13,75.86.29,151.7l57.18.25q.12-22.3.26-44.61c15.76,14.15,29.87,30.82,48.32,41.62,11.66,4.36,24.56,1.77,36.76,2.79,38.41-.19,77.13,1.27,115.34-1,19.63-1.25,35.29-19.48,37.73-38.31,2.09-12.72-4.31-24.29-12.67-33.41-7.77-10-16.31-19.48-23.15-30.18,25.45,0,50.9.07,76.35.14l.12-50.57q-48.56,0-97.11,0Zm92.32,4.76q0,20.49-.1,41c-24.16.2-48.64-.68-72.63.23-6.12,6.58,1.52,13.44,5.29,18.6,8.32,12,20.32,22,25.85,35.77C820,409.31,806.68,431,788,436.43c-25.66,3.6-51.75,1.43-77.57,2.1-25-.48-50.2.84-75.11-1.44-14.48-6.17-24.79-19-36.52-29.11-7.08-6.71-14.07-13.52-21.34-20q-.13,25.31-.29,50.61l-47.66-.21-.27-142.17c34.12.26,68.29-.49,102.39.35,22.94,2.93,43.73,24.08,42.9,47.75-1.69,17.61-15.56,31.08-31,38,.89,3.76,6.76,8.14,10.75,10.74,23.49,2.55,47.62.77,71.4,1.32,9.54-.79,20.18,1.61,29-2.42,5.58-6.43-2.86-12.72-6.39-17.58-10.54-12.18-25.66-24.66-24.23-42.52-.77-18.89,15.49-35.44,34-36.75,32.66-1.17,65.44-.08,98.13-.46Zm-279,36.74c.45,8.39-.93,18.29.48,25.81,14.14,1,28.85,2,42.92-.39,10.32-2.64,13.61-17.14,5.45-24-7.05-6.51-17.75-3-26.36-4.14l-22.5-.12c0,.94,0,1.88,0,2.81Zm7.17,2c12,.61,24.35-.92,36.15,1.19,7.11,3.38,7.19,14.88-.67,17.39-12.38,2.63-25.38,1.08-38,.89q.08-9.75.1-19.48Z" transform="translate(-66.94 -56.07)"/></g><g id="g5585"><path id="path5587" class="cls-2" d="M444.7,289.22l-70.34.06L321.92,441.2l54.19.57q3.09-10.42,6.19-20.84l59.53.48q3.27,10.43,6.53,20.87l54.56-.25L449.8,289.21ZM447,295.6q24.63,70.84,49.24,141.67l-44.34.21-6.51-20.83-66.61-.53q-3.09,10.41-6.19,20.83l-43.95-.46,49.17-142.43L446.4,294l.39,1.13.17.48ZM392.6,381.18l40.47.12L413.9,323.51Zm34.54-4.58H399.82l14-38.06" transform="translate(-66.94 -56.07)"/></g><g id="g5589"><path id="path5591" class="cls-1" d="M460.92,56.92c-73.79.27-147.6-.1-221.37.56-27.19,2.74-46.56,35.38-34.67,60.2,7.88,13.29,19.84,23.48,29,35.8-2.37,7.18-12.53,2.32-18.15,3.74H108.93V210c51.53-.45,103.23,1,154.65-.85,26.41-.71,45.92-32,36.06-56.2-9-15.44-22.42-28.39-31.69-43.82.54-6.25,9.17-2.42,13.39-3.53l63.17-.18V210h55.14V105.43H468.1V56.91Zm2.4,7.17v36.56H394.87V205.17H349.29V100.58c-27.07.47-54.31-.63-81.27.8-7.06,2.76-5,12-.43,16.15,9.23,13.4,21.33,25.09,28.63,39.71,6.36,21.94-11.88,48.06-35.35,47.27-49,1.42-98.11.3-147.16.66V162H232.33c5.59-2.06,8.6-9.87,3.4-14-9.43-12.72-23.32-22.84-28.87-38.08C201.54,86.51,221.65,60,246.36,62l217-.33Z" transform="translate(-66.94 -56.07)"/></g><g id="g5597"><path id="path5599" class="cls-1" d="M649.86,65.2V210h58.63L708.34,167c15.38,13.79,29.54,30,47.14,40.51a13.92,13.92,0,0,0,5,1.8c14.62.76,29.59.52,44.25.61q28.51,0,57,0-.49-26-1-52.09c-26.39-.71-53.23-.11-79.34-1.62-5.25-3.05-6.33-6.2.15-8.36,17.5-10.28,26.78-31.83,22.11-51.62-4.18-21.43-25.88-38.32-47.81-37.61-35.27-1.06-70.72-.45-106.06-.62ZM657,62.81c35.66.42,71.39-1,107,1.2,16,2.83,30.31,15.39,34.63,31.09,4.16,16.2-.83,34.68-14.41,45-4.86,4-10.47,6.9-15.92,10,5.27,6.18,11.4,13.66,20.47,11.55l67.33,1q.4,21.3.82,42.6c-32.14-.53-64.18-.35-96.47-1.1-10.94-3.41-18.46-13.26-27.19-20.18-10.07-9.2-19.88-18.66-29.77-28l.18,49.32H654.63V62.81H657Zm45.82,61.86c15.08.14,30.34,1.34,45.14-1.11,11.11-4.91,10.4-23.74-1.75-26.72-14.44-1.89-28.94-1.65-43.39-1.52Zm4.79-24.59s15.93-.51,28.43-.43a23.83,23.83,0,0,1,9.58,2.14c8.93,4.22,6.17,17.55-3.49,17.93-11.51.33-34.52.17-34.52.17Z" transform="translate(-66.94 -56.07)"/></g><path id="path7102" class="cls-3" d="M114.22,183.66V162.93H232.56l2.95-3c4.1-4.09,4-8.24-.45-13.61-1.87-2.28-6.9-8-11.19-12.73-15.16-16.72-18.93-25.2-16.69-37.55,2.47-13.59,10.8-24.71,22.71-30.28l6.63-3.1,113.1-.54,113.1-.54V100.3H394v104H349.58V100.19l-41.38.31c-46.53.34-44.94.07-44.94,7.74,0,4.39,2.12,7.71,16.95,26.57,5.1,6.48,10.86,14.42,12.8,17.64,3.29,5.43,3.54,6.44,3.49,14,0,6-.67,9.67-2.36,14C291.09,188.1,282.55,197.32,275,201l-5.73,2.82-77.53.28-77.53.28V183.66Z" transform="translate(-66.94 -56.07)"/><path id="path7104" class="cls-3" d="M587.41,205.61l-8.15-.33-3-10.08-3-10.08-33.68.27-33.68.27L503,195l-3,9.34H456.44l.58-2.27c.33-1.25,11.19-33,24.16-70.46l23.56-68.18,34.34-.27,34.34-.26,24.48,71c13.47,39,24.47,71.32,24.45,71.74-.34.29-17.58.72-34.94,0ZM560.7,150.37c0-1-19.5-57.72-20.08-58.36s-17.37,45.37-20.77,56.52l-.7,2.27h20.78c11.42,0,20.77-.19,20.77-.43Z" transform="translate(-66.94 -56.07)"/><path id="path7106" class="cls-3" d="M654.65,133.48V62.62l53.79.58c58.28.64,59.38.74,69.32,6.49,9.46,5.47,17,14.7,20,24.27,2.14,7.06,1.89,19.77-.54,26.78-3.78,10.93-10.09,17.88-23.18,25.53L767.58,150l4.4,4.52a38.68,38.68,0,0,0,7,5.87c1.93,1,11.77,1.54,39.65,2.09l37.07.74v8.28c0,4.55.3,13.82.66,20.61l.67,12.33-48.4-.3-48.39-.31L755,200.93c-5.24-2.9-22.43-17.94-40.81-35.71-5.33-5.15-10-9.36-10.35-9.36s-.66,10.91-.66,24.24v24.24H654.65V133.48Zm94.68-10.27c9.16-4.86,8.74-22-.63-25.9-4.28-1.77-18-2.7-33.19-2.25l-13.38.39v14.38c0,7.9.21,14.59.48,14.86s10.16.44,22,.37c18.22-.1,22-.38,24.75-1.85Z" transform="translate(-66.94 -56.07)"/><path id="path7108" class="cls-3" d="M529.7,420.11c-.36-9.58-.66-41.4-.66-70.71V296.12l42.17.08c35.32.07,50.92,0,60.3,1.15A40.53,40.53,0,0,1,644.64,301c18.91,8.87,30.29,26.37,29.05,43.21-.08,1.05-.27,2.11-.45,3.15a36.26,36.26,0,0,1-3.46,10.21c-.41.8-.89,1.65-1.39,2.5a50.25,50.25,0,0,1-9,10.85,55.22,55.22,0,0,1-10.55,7.65c-3,1.67-5.69,3.57-5.69,4.36s2.06,3.37,4.59,5.72c3.67,3.42,5.76,5,10,5.51.32,0,.65.06,1.09.1.67.05,1.51.14,2.54.2,18.13,1.16,88.42,0,92-1.18s4.35-4.69,3.31-8.82a17.74,17.74,0,0,0-2.8-4.63c-.94-1.21-2.37-2.85-3.5-4.12-.65-.73-1.12-1.4-1.41-1.75-1.32-1.62-2.41-2.78-2.9-3.32-5.89-6.42-6.7-7.22-8.53-9.32A68,68,0,0,1,729.77,351c-.79-1.34-1.38-2.54-2-3.9a30.88,30.88,0,0,1-3.22-14.6c0-8.81.59-10,3.6-16.15a36.88,36.88,0,0,1,18.21-17.44,33.56,33.56,0,0,1,7.2-2.36,30,30,0,0,1,4.5-.64c15.29-1.07,45.53-.55,45.53-.55l51.77.1v39.37l-35.71-.12c-39.24.37-39,.34-39,6.45,0,3.45,6.23,12.44,21.53,31a112.38,112.38,0,0,1,9.38,13.13c2.58,4.66,3.47,6.21,3.47,13.79s-.92,9.86-3.76,15.86a39.7,39.7,0,0,1-17.6,18.37c-1.7.86-3.31,2-5.78,2.33a241.63,241.63,0,0,1-29.9,2.09c-12.47.22-29.76,0-54.2-.11-15.51.11-27.83.09-37.48,0-4.63,0-8.65-.15-12.14-.24-3.73-.1-6.89-.3-9.5-.43-4.28-.21-7.2,0-9-.66-.48-.18-1.39-.64-3.07-1.45-6.91-3.46-13.36-8.38-33.33-27.68-11.29-10.54-22.51-21.07-22.51-21.07s-.14,13.08-.14,26.69l-.17,24.94-22.92-.08-23-.11-.67-17.43Zm83.93-62.35c4.59-.52,9.47-1.72,10.92-2.66,6-3.9,7.89-14.47,3.73-20.31-3.92-5.5-6.66-6.1-30-6.5l-21.21-.37v29.3l7.57.57c12.8,1,20.36,1,29,0Z" transform="translate(-66.94 -56.07)"/><path id="path7110" class="cls-3" d="M328.6,436.49l49.17-142.43,34.79,0,33.84,0,24.75,69.95c13.47,38.79,25.05,73.33,25.05,73.33l-22.06.11-22.28.1-3.5-11.21-3-9.62-66.61-.53-2.85,9.6L372.55,437Zm85.3-113-21.3,57.67,20.21.12h20.26Z" transform="translate(-66.94 -56.07)"/><path id="path7112" class="cls-3" d="M239.91,397.71c-7.44-21.69-13.33-38.82-13.33-38.82s-6.5,18.34-14.31,39.2l-14.36,39.38H167.49l-24.57-72.21L119,295.09l22.45-.25,21.69.28,9.71,27.51c5.34,15.14,10,27.52,10.36,27.53s19.65-55.07,19.65-55.07h48s15.57,47.09,17.83,53.05l1.2,3.34,2.83-7.93c1.6-4.44,6-17,9.72-27.81l7-20.15H333.8l-24.22,70.59-24.83,72.35H254Z" transform="translate(-66.94 -56.07)"/></g></g><g id="Layer_2" data-name="Layer 2"><text class="cls-4" transform="translate(0 214.83)">THE RISE OF SKY<tspan class="cls-5" x="618.08" y="0">W</tspan><tspan x="681.2" y="0">ALER</tspan></text></g></svg>