<svg xmlns="http://www.w3.org/2000/svg" width="846.18" height="388.94" viewBox="0 0 846.18 388.94"><defs><style>.cls-1{fill:#fff;}.cls-2{fill-rule:evenodd;}.cls-3{fill:#466ab3;}</style></defs><title>star_wars_logo_official</title><g id="Name"><path class="cls-1" d="M72.75,268.89c1-.56,1.28-1.83,1.28-3.77V240.44H69.75a3.1,3.1,0,0,0-2.55,1.32v-9.17H89.28v9.17a3.13,3.13,0,0,0-2.55-1.32H82.44v24.68c0,1.94.31,3.21,1.28,3.77Z" transform="translate(-67.2 -55.59)"/><path class="cls-1" d="M131.71,265.12c0,1.94.3,3.21,1.27,3.77H122c1-.56,1.27-1.83,1.27-3.77V254.31h-8v10.81c0,1.94.3,3.21,1.27,3.77h-11c1-.56,1.27-1.83,1.27-3.77V236.36c0-1.94-.3-3.21-1.27-3.77h11c-1,.56-1.27,1.83-1.27,3.77v10.1h8v-10.1c0-1.94-.3-3.21-1.27-3.77h11c-1,.56-1.27,1.83-1.27,3.77Z" transform="translate(-67.2 -55.59)"/><path class="cls-1" d="M152.26,236.36c0-1.79-.25-3-1.43-3.67v-.1H173v9.63a4.83,4.83,0,0,0-3.83-1.78h-8.51v6.37h5.71c1.43,0,2.09-.86,2.85-1.78v11.42c-.76-.92-1.42-1.78-2.85-1.78h-5.71V261h8.67a4.81,4.81,0,0,0,3.82-1.78v9.63H151c1-.56,1.27-1.83,1.27-3.77Z" transform="translate(-67.2 -55.59)"/><path class="cls-1" d="M221.88,231.77a3.68,3.68,0,0,0,2.5,1c1.63,0,4.84-1,7.34-1,8.11,0,12.54,5.3,12.54,11.83,0,3.57-.91,7-4.28,7.5v.1c5.86,1.22,8.72,8.57,9.79,14.23a5.09,5.09,0,0,0,1.79,3.46H239.88a4.69,4.69,0,0,0,.66-2.75c0-6.32-4.64-10.1-10.25-11.68v10.66c0,1.94.31,3.21,1.28,3.77h-11c1-.56,1.28-1.83,1.28-3.77Zm8.41,15.66a10.54,10.54,0,0,0,1.28,0,3.93,3.93,0,0,0,0-7.86,10.54,10.54,0,0,0-1.28,0Z" transform="translate(-67.2 -55.59)"/><path class="cls-1" d="M267.11,236.36c0-1.94-.3-3.21-1.27-3.77h11c-1,.56-1.27,1.83-1.27,3.77v28.76c0,1.94.3,3.21,1.27,3.77h-11c1-.56,1.27-1.83,1.27-3.77Z" transform="translate(-67.2 -55.59)"/><path class="cls-1" d="M310.67,242.22c-1.33-1.07-3-2.6-5.41-2.6-2,0-2.45,1-2.45,1.89,0,4.08,11.83,5.46,11.83,16.42,0,7.24-4.94,11.78-12.74,11.78a16.27,16.27,0,0,1-2.86-.31,14.8,14.8,0,0,0-2.5-.3,5.57,5.57,0,0,0-2.29.61V257.57c1.88,2.4,3.92,4.29,7,4.29,2.76,0,4.64-1.69,4.64-4.24,0-5.86-11.83-6.88-11.83-15.65,0-5.66,3.67-10.2,9.64-10.2a12.74,12.74,0,0,1,2.75.31,11.58,11.58,0,0,0,2.25.3,2.25,2.25,0,0,0,1.88-.61h.11Z" transform="translate(-67.2 -55.59)"/><path class="cls-1" d="M332.7,236.36c0-1.79-.26-3-1.43-3.67v-.1h22.18v9.63a4.81,4.81,0,0,0-3.82-1.78h-8.52v6.37h5.71c1.43,0,2.09-.86,2.86-1.78v11.42c-.77-.92-1.43-1.78-2.86-1.78h-5.71V261h8.67a4.83,4.83,0,0,0,3.83-1.78v9.63H331.42c1-.56,1.28-1.83,1.28-3.77Z" transform="translate(-67.2 -55.59)"/><path class="cls-1" d="M440.15,250.74c0,10.91-9.18,19-19.58,19s-19.58-8.06-19.58-19,9.18-19,19.58-19S440.15,239.83,440.15,250.74Zm-30.39,0a10.81,10.81,0,1,0,10.81-10.56A10.48,10.48,0,0,0,409.76,250.74Z" transform="translate(-67.2 -55.59)"/><path class="cls-1" d="M478.2,242.22c-.77-.91-1.43-1.78-2.86-1.78h-7.85v6.37h5.71c1.43,0,2.09-.86,2.86-1.78v11.42c-.77-.92-1.43-1.78-2.86-1.78h-5.71v10.45c0,1.94.31,3.21,1.27,3.77h-11c1-.56,1.28-1.83,1.28-3.77V233.91a2.85,2.85,0,0,0-.36-1.32H478.2Z" transform="translate(-67.2 -55.59)"/><path class="cls-1" d="M540.72,242.22c-1.32-1.07-3-2.6-5.4-2.6-2,0-2.45,1-2.45,1.89,0,4.08,11.83,5.46,11.83,16.42,0,7.24-5,11.78-12.75,11.78a16,16,0,0,1-2.85-.31,14.92,14.92,0,0,0-2.5-.3,5.67,5.67,0,0,0-2.3.61V257.57c1.89,2.4,3.93,4.29,7,4.29,2.75,0,4.64-1.69,4.64-4.24,0-5.86-11.83-6.88-11.83-15.65,0-5.66,3.67-10.2,9.64-10.2a12.74,12.74,0,0,1,2.75.31,11.58,11.58,0,0,0,2.24.3,2.26,2.26,0,0,0,1.89-.61h.1Z" transform="translate(-67.2 -55.59)"/><path class="cls-1" d="M571.17,265.12c0,1.94.31,3.21,1.28,3.77h-11c1-.56,1.28-1.83,1.28-3.77V236.36c0-1.94-.31-3.21-1.28-3.77h11c-1,.56-1.28,1.83-1.28,3.77v9.23h.1l3.62-5.66c1.53-2.35,3.37-5.05,3.37-5.66a2.25,2.25,0,0,0-.77-1.68H590.8a9.67,9.67,0,0,0-1.78,1.78l-12.29,14.89c6.17.92,9.48,5.3,11.32,11.47,1.28,4.24,2.19,7.14,3.83,8.16H581.11c0-.71.16-1.42.16-2.14,0-6.58-4.64-10.15-10.1-12.44Z" transform="translate(-67.2 -55.59)"/><path class="cls-1" d="M615.44,268.89c1-.56,1.27-1.83,1.27-3.77v-12.7l-8-12.75c-1.48-2.39-4.08-6-4.85-7.08h12.6a2.08,2.08,0,0,0-.87,1.63,5.59,5.59,0,0,0,.92,2.24l4.49,8.11h.1l4.28-8.26a4.8,4.8,0,0,0,.77-2.09,2.08,2.08,0,0,0-.87-1.63h13a11.46,11.46,0,0,0-2,2.39l-11.16,17.44v12.7c0,1.94.3,3.21,1.27,3.77Z" transform="translate(-67.2 -55.59)"/><path class="cls-1" d="M686.94,266.34a7.23,7.23,0,0,0-.46,1.43,2.11,2.11,0,0,0,.46,1.12h-7.81l-4.64-13.71h-.1l-3.26,11a6,6,0,0,0-.41,1.63,2.2,2.2,0,0,0,.46,1.12h-7.65L651.34,236a14.5,14.5,0,0,0-1.93-3.41h11.47a2.19,2.19,0,0,0-1,1.63,6.13,6.13,0,0,0,.46,1.94l6.53,19.47h.1l3.21-10.81-3.67-9.23a12.8,12.8,0,0,0-1.53-3h11.27a2.19,2.19,0,0,0-1,1.63,9.48,9.48,0,0,0,.56,1.94l6.22,19.68h.16L689,236.16a9.48,9.48,0,0,0,.56-1.94,2.08,2.08,0,0,0-.87-1.63h11.42a7.4,7.4,0,0,0-1.78,2.7Z" transform="translate(-67.2 -55.59)"/><path class="cls-1" d="M721.06,263.13l-.87,2.25a4.24,4.24,0,0,0-.36,1.68,2.47,2.47,0,0,0,.82,1.83H709a3.61,3.61,0,0,0,1.18-1.58l12-30a11.35,11.35,0,0,0,.92-2.91,2.47,2.47,0,0,0-.82-1.83H731l13,33.7a8.29,8.29,0,0,0,1.63,2.6H734a2.47,2.47,0,0,0,.82-1.83,4.07,4.07,0,0,0-.36-1.68l-.87-2.25Zm10.15-7.34-3.73-12h-.1l-3.72,12Z" transform="translate(-67.2 -55.59)"/><path class="cls-1" d="M760.53,268.89c1-.56,1.28-1.83,1.28-3.77V236.36c0-1.94-.31-3.21-1.28-3.77h11c-1,.56-1.28,1.83-1.28,3.77V261h7.19a4.83,4.83,0,0,0,3.83-1.78v9.63Z" transform="translate(-67.2 -55.59)"/><path class="cls-1" d="M806.89,265.12c0,1.94.31,3.21,1.28,3.77h-11c1-.56,1.28-1.83,1.28-3.77V236.36c0-1.94-.31-3.21-1.28-3.77h11c-1,.56-1.28,1.83-1.28,3.77v9.23h.1l3.62-5.66c1.53-2.35,3.37-5.05,3.37-5.66a2.25,2.25,0,0,0-.77-1.68h13.31a9.67,9.67,0,0,0-1.78,1.78l-12.29,14.89c6.17.92,9.48,5.3,11.32,11.47,1.27,4.24,2.19,7.14,3.82,8.16H816.83c0-.71.16-1.42.16-2.14,0-6.58-4.64-10.15-10.1-12.44Z" transform="translate(-67.2 -55.59)"/><path class="cls-1" d="M843.92,236.36c0-1.79-.26-3-1.43-3.67v-.1h22.18v9.63a4.81,4.81,0,0,0-3.82-1.78h-8.52v6.37H858c1.43,0,2.09-.86,2.86-1.78v11.42c-.77-.92-1.43-1.78-2.86-1.78h-5.71V261H861a4.81,4.81,0,0,0,3.82-1.78v9.63H842.64c1-.56,1.28-1.83,1.28-3.77Z" transform="translate(-67.2 -55.59)"/><path class="cls-1" d="M883.7,231.77a3.68,3.68,0,0,0,2.5,1c1.63,0,4.84-1,7.34-1,8.11,0,12.54,5.3,12.54,11.83,0,3.57-.91,7-4.28,7.5v.1c5.87,1.22,8.72,8.57,9.79,14.23a5.09,5.09,0,0,0,1.79,3.46H901.7a4.69,4.69,0,0,0,.66-2.75c0-6.32-4.64-10.1-10.25-11.68v10.66c0,1.94.31,3.21,1.28,3.77h-11c1-.56,1.28-1.83,1.28-3.77Zm8.41,15.66a10.54,10.54,0,0,0,1.28,0,3.93,3.93,0,0,0,0-7.86,10.54,10.54,0,0,0-1.28,0Z" transform="translate(-67.2 -55.59)"/></g><g id="Wars"><polygon class="cls-2" points="184.69 385.9 159.39 312.39 132.79 384.76 98.1 384.88 47.67 236.5 98.1 236.53 116.03 285.72 133.59 236.5 185.86 236.5 202.86 286.86 220.16 236.99 270.81 237 219.69 385.94 184.69 385.9"/><path class="cls-3" d="M250.9,295.09,270,351.71l19.47-56.13H333.8L284.75,438.53l-30.72,0L226.68,359l-28.79,78.32-30.45.11L119.06,295.09l44.13,0,20.06,55,19.65-55.07h48m-140.22-6,2.7,7.93L161.76,439.4l1.39,4.08h4.32l30.44-.11h4.17l1.44-3.92,23-62.49,21.86,63.51,1.39,4H254l30.72,0H289l1.39-4.06,49.06-142.94,2.72-7.94h-57l-1.39,4L270.1,333.19l-13.52-40-1.37-4.08H198.67l-1.42,4-14.06,39.39-14.36-39.41-1.44-3.94H163.2l-44.14,0Z" transform="translate(-67.2 -55.59)"/><path class="cls-2" d="M444.21,419.53l-63,.47-6,18.7-49.95.07,50.36-147,73-.56,51,148.69-49.32.46Zm-14.72-40.37L413.3,332.42l-16.63,46.72Z" transform="translate(-67.2 -55.59)"/><path class="cls-3" d="M446.42,294.26,495.36,437l-42.89.4-6-20.85L379,417l-6,18.68-43.56.06,48.3-141,68.68-.53m-12.71,87.9-20.38-58.8-20.91,58.78,41.29,0m17-93.94-4.32,0-68.68.53-4.25,0-1.38,4-48.3,141L321,441.77h8.41L373,441.7h4.37l1.34-4.17L383.38,423l58.58-.43L446.7,439l1.27,4.38,4.56,0,42.88-.4,8.32-.08L501,435,452.1,292.31l-1.4-4.09Zm-49.78,87.92,12.34-34.67,12,34.69-24.36,0Z" transform="translate(-67.2 -55.59)"/><path class="cls-2" d="M526.51,292.9l105.66,1.46h.1c22.09,1.7,38.21,14,43.13,33,5.07,19.55-3.29,40.45-20.78,52a44.72,44.72,0,0,1-5.91,3.1c-1.05.49-2.4,1.11-3.16,1.57.79,2.53,5.69,8.07,8.32,8.61a56.92,56.92,0,0,0,6.94.42l89.25.63c2.4-1,4.11-2.49,4.52-4a3.81,3.81,0,0,0-1.11-3.44L729.2,356.6c-8.13-9.69-9.84-23-4.65-36.4,5.54-14.36,17.44-25.12,29.6-26.78l.19,0,104.56-1v44.66l-71.75,1.07c-.93.07-2.48.33-3,1.18s-.38,2.43.31,4.3l20.3,28.4c10.58,11.26,14.74,26.23,11.13,40.1-3.49,13.4-13.83,24-27.67,28.29l-.43.13-98.52-.17-46.5-.25c-11.66,0-15.17-1.59-24.92-11.32l-36.62-33.64V396L581,440.47l-54.49.12Zm86.2,62.32c9.94,0,15.13-6.26,15.13-12.45a10.15,10.15,0,0,0-3.46-7.69c-2.71-2.43-6.8-3.71-11.82-3.71H580l.12,23.84Z" transform="translate(-67.2 -55.59)"/><path class="cls-3" d="M855.9,295.43v38.68l-68.89,1c-6.9.51-7,5.53-5.23,9.91l20.63,28.89c21,22.1,12.6,55-15.1,63.6l-56.54-.09-41.52-.08-30.71-.16-15.77-.09c-11,0-13.7-1.33-22.86-10.49l-36.85-33.83c-2.53-2.54-3.78-3.83-4.39-3.83-.8,0-.46,2.29-.46,7l-.2,41.52-48.5.11V295.94L632,297.35c48,3.69,54.24,57.53,20.92,79.54-4.16,2.75-10.36,4.4-10.51,6.26-.3,3.86,6.78,11.63,10.82,12.46a68.84,68.84,0,0,0,7.44.48l89.9.63c6.2-2.26,9.35-7.39,5.16-12.38L731.52,354.7c-17.71-21.1,1.78-55.4,23-58.31l101.34-1M612.71,358.22c23,0,25.41-29.85-.15-29.85H577l.16,29.84h35.55M861.9,289.38l-6,.05-101.35,1h-.38l-.38.06c-13.21,1.8-26.07,13.33-32,28.67-5.59,14.47-3.71,28.83,5.15,39.41l24.23,29.61,0,0,0,0a2.39,2.39,0,0,1,.5.78,4.64,4.64,0,0,1-2.22,1.73l-88.62-.62c-4.47-.15-5.9-.3-6.3-.35-1.25-.48-3.41-2.56-4.81-4.41l.25-.12a45.19,45.19,0,0,0,6.3-3.32c18.57-12.26,27.42-34.47,22-55.26-5.26-20.28-22.38-33.46-45.82-35.26h-.37l-102.53-1.41-6.08-.08V443.6h6l48.5-.11,6,0,0-5.95.17-35.55,31.58,29c9.72,9.71,14,12.15,27,12.15l15.74.09,30.71.16,41.54.08,56.54.09h.92l.88-.27c14.83-4.62,25.92-16,29.67-30.39,3.86-14.81-.52-30.77-11.71-42.76l-19.93-27.9a6.17,6.17,0,0,1-.26-1l.43-.06,68.69-1,5.91-.09V289.38ZM583.13,352.21l-.1-17.84h29.53c4.27,0,7.67,1,9.83,2.95a7.12,7.12,0,0,1,2.45,5.45c0,4.69-4.16,9.45-12.13,9.45Z" transform="translate(-67.2 -55.59)"/></g><g id="Star"><path class="cls-2" d="M767.87,207c-11.66,0-15.17-1.59-24.91-11.33L706.33,162v.8l-.21,44.52-54.49.12V59.77L757.3,61.22h.09c22.09,1.69,38.22,14,43.14,33,5.06,19.55-3.29,40.45-20.79,52a46.44,46.44,0,0,1-5.9,3.1c-1.05.48-2.4,1.1-3.16,1.56.79,2.54,5.69,8.08,8.32,8.62,2.92.6,29.6,1,69.63,1H858.9v47Zm-30-84.9c9.94,0,15.14-6.26,15.14-12.45a10.22,10.22,0,0,0-3.46-7.69c-2.72-2.42-6.8-3.7-11.82-3.7H705.14l.13,23.85Z" transform="translate(-67.2 -55.59)"/><path class="cls-3" d="M654.63,62.81l102.53,1.41c48,3.68,54.25,57.53,20.93,79.53-4.17,2.75-10.37,4.4-10.51,6.26-.3,3.86,6.77,11.64,10.81,12.47,4.59.94,51.86,1,70.25,1h7.26v40.94l-88-.47c-11,0-13.7-1.33-22.86-10.49l-36.84-33.84c-2.54-2.53-3.79-3.83-4.39-3.83-.81,0-.47,2.3-.47,7l-.19,41.52-48.51.11V62.81m83.2,62.27c23,0,25.41-29.84-.14-29.84H702.13l.15,29.85h35.55m-89.2-68.35V210.47l6,0,48.5-.11h6l0-6,.17-35.55,31.57,29c9.73,9.71,14,12.16,27,12.16l88,.47,6,0v-53H848.64c-46.32,0-66-.48-69-.9-1.25-.48-3.41-2.56-4.82-4.41l.25-.12a47.43,47.43,0,0,0,6.3-3.32c18.57-12.26,27.43-34.47,22-55.27C798.18,73.22,781.05,60,757.62,58.24l-.19,0h-.19L654.72,56.81l-6.09-.08Zm59.62,62.35-.09-17.85h29.53c4.27,0,7.66,1,9.82,2.94a7.16,7.16,0,0,1,2.46,5.45c0,4.7-4.17,9.45-12.14,9.45Z" transform="translate(-67.2 -55.59)"/><path class="cls-2" d="M571.21,188.17l-63,.47-6,18.7-49.95.07,50.35-147,73-.56,51,148.69-49.32.46ZM556.49,147.8l-16.2-46.74-16.62,46.72Z" transform="translate(-67.2 -55.59)"/><path class="cls-3" d="M573.42,62.9l48.93,142.71-42.88.4-6-20.85-67.48.5-6,18.68-43.56.06,48.3-141,68.68-.53M560.7,150.8,540.33,92l-20.91,58.78,41.28,0m17-93.94-4.32,0-68.67.53-4.25,0-1.38,4-48.31,141L448,210.41h8.41l43.56-.06h4.37l1.34-4.17,4.65-14.55,58.59-.43,4.74,16.48,1.26,4.38,4.56,0,42.89-.4,8.32-.08-2.7-7.87L579.1,61l-1.41-4.09Zm-49.77,87.92,12.34-34.67,12,34.69-24.35,0Z" transform="translate(-67.2 -55.59)"/><path class="cls-2" d="M111.43,160.06,232,160c2.4-1,4.12-2.49,4.53-4a3.85,3.85,0,0,0-1.11-3.44L211.16,122.9c-8.13-9.69-9.83-23-4.65-36.39,5.54-14.36,17.44-25.12,29.61-26.79l.19,0,229.41-1.09v44.68l-68.46.09-.24,104-50.74,0,.37-104.24-77.53,1.29c-.94.08-2.49.33-3,1.19s-.39,2.43.3,4.29l20.3,28.41c10.58,11.25,14.75,26.23,11.14,40.09-3.5,13.41-13.84,24-27.67,28.29l-.43.14-158.54.57Z" transform="translate(-67.2 -55.59)"/><path class="cls-3" d="M462.72,61.62V100.3l-68.45.08-.24,104-44.74,0,.38-104.29L269,101.43c-6.91.52-7,5.54-5.24,9.91l20.64,28.89c21,22.11,12.59,55-15.1,63.61l-155.06.56.19-41.34,118.16,0c6.2-2.26,9.35-7.4,5.16-12.39L213.48,121c-17.7-21.1,1.79-55.4,23-58.3l226.2-1.08m6-6-6,0L236.49,56.7h-.39l-.39,0c-13.22,1.81-26.07,13.33-32,28.68-5.58,14.46-3.7,28.82,5.15,39.4l24.23,29.61,0,0,0,0a2.59,2.59,0,0,1,.49.78,4.67,4.67,0,0,1-2.24,1.75l-117,0h-6l0,6-.19,41.34,0,6.06,6,0,155.06-.56h.9l.86-.26c14.83-4.63,25.93-16,29.68-30.4,3.86-14.81-.52-30.76-11.72-42.76l-19.93-27.9a8.59,8.59,0,0,1-.26-1l.44,0,74.37-1.24-.35,98.16,0,6h6l44.74,0h6v-6l.22-98,62.48-.07h6V55.59Z" transform="translate(-67.2 -55.59)"/></g></svg>