<?xml version="1.0" encoding="UTF-8"?>
<svg width="904px" height="500px" viewBox="0 0 904 500" version="1.1" xmlns="http://www.w3.org/2000/svg" xmlns:xlink="http://www.w3.org/1999/xlink">
    <!-- Generator: Sketch 48 (47235) - http://www.bohemiancoding.com/sketch -->
    <title>Group</title>
    <desc>Created with Sketch.</desc>
    <defs>
        <rect id="path-1" x="0" y="0" width="181.818182" height="495.867769"></rect>
        <polygon id="path-2" points="252.066116 0 484.445689 0 576.112659 112.481818 673.26127 0 903.581267 0 696.463185 249.126455 903.581267 500 673.26127 500 577.823691 391.2851 484.445689 500 252.066116 500 461.045738 249.126455"></polygon>
    </defs>
    <g id="Page-1" stroke="none" stroke-width="1" fill="none" fill-rule="evenodd">
        <g id="Group">
            <g id="Rectangle">
                <use fill="#000000" fill-rule="evenodd" xlink:href="#path-1"></use>
                <rect stroke="#F7F500" stroke-width="8" x="4" y="4" width="173.818182" height="487.867769"></rect>
            </g>
            <g id="Path-2">
                <use fill="#000000" fill-rule="evenodd" xlink:href="#path-2"></use>
                <path stroke="#F7F500" stroke-width="8" d="M260.6425,4 L466.259204,249.117491 L260.604147,496 L482.608436,496 L577.790747,385.184443 L675.072429,496 L895.091864,496 L691.26877,249.117538 L895.05393,4 L675.091912,4 L576.023688,118.704407 L482.54542,4 L260.6425,4 Z"></path>
            </g>
        </g>
    </g>
</svg>