<svg id="Layer_1" data-name="Layer 1" xmlns="http://www.w3.org/2000/svg" xmlns:xlink="http://www.w3.org/1999/xlink" width="20.99" height="20.99" viewBox="0 0 20.99 20.99"><defs><style>.cls-1,.cls-2{fill:none;}.cls-2{stroke:#000;stroke-miterlimit:10;stroke-width:0.63px;}.cls-3{clip-path:url(#clip-path);}</style><clipPath id="clip-path" transform="translate(2.5 2.5)"><path class="cls-1" d="M11.25,12.39a5.45,5.45,0,0,1-2.44,1v.72a6.12,6.12,0,0,0,2.94-1.22l-.5-.51Zm-6.5,0-.51.51a6.16,6.16,0,0,0,3,1.22V13.4A5.4,5.4,0,0,1,4.75,12.39ZM13.4,8.81a5.4,5.4,0,0,1-1,2.44l.51.51a6.16,6.16,0,0,0,1.22-2.95Zm-11.52,0A6,6,0,0,0,3.1,11.75l.51-.5a5.45,5.45,0,0,1-1-2.44ZM3.1,4.25A6.08,6.08,0,0,0,1.88,7.19H2.6a5.45,5.45,0,0,1,1-2.44Zm9.8,0-.51.51a5.4,5.4,0,0,1,1,2.44h.72A6.16,6.16,0,0,0,12.9,4.24ZM7.55,3.35V5.76a2.25,2.25,0,0,0-.81.34L5,4.39,4.39,5,6.1,6.74a2.07,2.07,0,0,0-.33.81H3.35v.9H5.77a2.07,2.07,0,0,0,.33.81L4.39,11l.64.64L6.74,9.9a2.07,2.07,0,0,0,.81.33v2.42h.9V10.23a2.07,2.07,0,0,0,.81-.33L11,11.61l.64-.64L9.9,9.26a2.25,2.25,0,0,0,.34-.81h2.41v-.9H10.24a2.25,2.25,0,0,0-.34-.81L11.61,5,11,4.39,9.26,6.1a2.25,2.25,0,0,0-.81-.34V3.35ZM7.19,1.88A6.16,6.16,0,0,0,4.24,3.1l.51.51h0a5.4,5.4,0,0,1,2.44-1Zm1.62,0V2.6a5.34,5.34,0,0,1,2.44,1l.5-.51A6,6,0,0,0,8.81,1.88Z"/></clipPath></defs><title>Untitled-1</title><circle class="cls-2" cx="10.5" cy="10.5" r="7"/><g class="cls-3"><rect width="20.99" height="20.99"/></g></svg>