<svg id="Layer_1" data-name="Layer 1" xmlns="http://www.w3.org/2000/svg" xmlns:xlink="http://www.w3.org/1999/xlink" viewBox="0 0 647.58 564.01"><defs><style>.cls-1{opacity:0.4;}.cls-2{fill:url(#radial-gradient);}.cls-3{fill:url(#radial-gradient-2);}.cls-4{fill:url(#radial-gradient-3);}.cls-5{fill:url(#radial-gradient-4);}.cls-6{fill:url(#radial-gradient-5);}.cls-7{fill:url(#radial-gradient-6);}.cls-8{fill:url(#radial-gradient-7);}.cls-9{fill:url(#radial-gradient-8);}.cls-10{fill:url(#radial-gradient-9);}.cls-11{fill:url(#radial-gradient-10);}.cls-12{fill:url(#radial-gradient-11);}.cls-13{fill:url(#radial-gradient-12);}.cls-14{fill:url(#radial-gradient-13);}.cls-15{fill:url(#radial-gradient-14);}.cls-16{fill:url(#radial-gradient-15);}.cls-17{fill:url(#radial-gradient-16);}.cls-18{fill:url(#radial-gradient-17);}.cls-19{fill:url(#radial-gradient-18);}.cls-20{fill:url(#radial-gradient-19);}.cls-21{fill:url(#radial-gradient-20);}.cls-22{fill:url(#radial-gradient-21);}.cls-23{fill:url(#radial-gradient-22);}.cls-24{fill:url(#radial-gradient-23);}.cls-25{fill:url(#radial-gradient-24);}.cls-26{fill:url(#radial-gradient-25);}.cls-27{fill:url(#radial-gradient-26);}.cls-28{fill:url(#radial-gradient-27);}.cls-29{fill:url(#radial-gradient-28);}.cls-30{fill:url(#radial-gradient-29);}.cls-31{fill:url(#radial-gradient-30);}.cls-32{fill:url(#radial-gradient-31);}.cls-33{fill:url(#radial-gradient-32);}.cls-34{fill:url(#radial-gradient-33);}.cls-35{fill:url(#radial-gradient-34);}.cls-36{fill:url(#radial-gradient-35);}.cls-37{fill:url(#radial-gradient-36);}.cls-38{fill:url(#radial-gradient-37);}.cls-39{fill:url(#radial-gradient-38);}.cls-40{fill:url(#radial-gradient-39);}.cls-41{fill:url(#radial-gradient-40);}.cls-42{fill:url(#radial-gradient-41);}.cls-43{fill:url(#radial-gradient-42);}.cls-44{fill:url(#radial-gradient-43);}.cls-45{fill:url(#radial-gradient-44);}.cls-46{fill:url(#radial-gradient-45);}.cls-47{fill:url(#radial-gradient-46);}.cls-48{fill:url(#radial-gradient-47);}.cls-49{fill:url(#radial-gradient-48);}.cls-50{fill:url(#radial-gradient-49);}.cls-51{fill:url(#radial-gradient-50);}.cls-52{fill:url(#radial-gradient-51);}.cls-53{fill:url(#radial-gradient-52);}.cls-54{fill:url(#radial-gradient-53);}.cls-55{fill:url(#radial-gradient-54);}.cls-56,.cls-59,.cls-60,.cls-61{fill-rule:evenodd;}.cls-56{fill:url(#radial-gradient-55);}.cls-57,.cls-61{fill:#fff;}.cls-58{fill:#919496;}.cls-59,.cls-62{fill:#fee800;}</style><radialGradient id="radial-gradient" cx="324.97" cy="144.28" r="83.6" gradientTransform="translate(-273.45 33.28) scale(1.35 1.39)" gradientUnits="userSpaceOnUse"><stop offset="0" stop-color="#fee800"/><stop offset="0.12" stop-color="#fae400" stop-opacity="0.98"/><stop offset="0.25" stop-color="#edd900" stop-opacity="0.93"/><stop offset="0.37" stop-color="#d9c600" stop-opacity="0.85"/><stop offset="0.5" stop-color="#bcac00" stop-opacity="0.74"/><stop offset="0.63" stop-color="#968900" stop-opacity="0.59"/><stop offset="0.76" stop-color="#696001" stop-opacity="0.41"/><stop offset="0.89" stop-color="#342f01" stop-opacity="0.2"/><stop offset="1" stop-color="#010101" stop-opacity="0"/></radialGradient><radialGradient id="radial-gradient-2" cx="320.86" cy="190.79" r="83.66" xlink:href="#radial-gradient"/><radialGradient id="radial-gradient-3" cx="322.14" cy="155.44" r="83.8" xlink:href="#radial-gradient"/><radialGradient id="radial-gradient-4" cx="320.86" cy="166.88" r="83.66" xlink:href="#radial-gradient"/><radialGradient id="radial-gradient-5" cx="324.97" cy="213.39" r="83.6" xlink:href="#radial-gradient"/><radialGradient id="radial-gradient-6" cx="342.32" cy="243.84" r="81.08" xlink:href="#radial-gradient"/><radialGradient id="radial-gradient-7" cx="335.13" cy="234.32" r="82.21" xlink:href="#radial-gradient"/><radialGradient id="radial-gradient-8" cx="329.32" cy="224.13" r="83.06" xlink:href="#radial-gradient"/><radialGradient id="radial-gradient-9" cx="322.14" cy="202.22" r="83.8" xlink:href="#radial-gradient"/><radialGradient id="radial-gradient-10" cx="421.87" cy="75.09" r="70.61" xlink:href="#radial-gradient"/><radialGradient id="radial-gradient-11" cx="371.21" cy="90.55" r="76.54" xlink:href="#radial-gradient"/><radialGradient id="radial-gradient-12" cx="382.87" cy="84.87" r="74.88" xlink:href="#radial-gradient"/><radialGradient id="radial-gradient-13" cx="395.31" cy="80.37" r="73.28" xlink:href="#radial-gradient"/><radialGradient id="radial-gradient-14" cx="329.32" cy="133.53" r="83.06" xlink:href="#radial-gradient"/><radialGradient id="radial-gradient-15" cx="408.36" cy="77.09" r="71.82" xlink:href="#radial-gradient"/><radialGradient id="radial-gradient-16" cx="342.32" cy="113.83" r="81.08" xlink:href="#radial-gradient"/><radialGradient id="radial-gradient-17" cx="350.8" cy="252.54" r="79.72" xlink:href="#radial-gradient"/><radialGradient id="radial-gradient-18" cx="350.8" cy="105.12" r="79.72" xlink:href="#radial-gradient"/><radialGradient id="radial-gradient-19" cx="360.48" cy="97.33" r="78.18" xlink:href="#radial-gradient"/><radialGradient id="radial-gradient-20" cx="335.13" cy="123.34" r="82.21" xlink:href="#radial-gradient"/><radialGradient id="radial-gradient-21" cx="408.36" cy="280.57" r="71.82" xlink:href="#radial-gradient"/><radialGradient id="radial-gradient-22" cx="421.87" cy="282.57" r="70.61" xlink:href="#radial-gradient"/><radialGradient id="radial-gradient-23" cx="443.32" cy="74.36" r="70.34" xlink:href="#radial-gradient"/><radialGradient id="radial-gradient-24" cx="360.48" cy="260.33" r="78.18" xlink:href="#radial-gradient"/><radialGradient id="radial-gradient-25" cx="395.31" cy="277.3" r="73.28" xlink:href="#radial-gradient"/><radialGradient id="radial-gradient-26" cx="371.21" cy="267.11" r="76.54" xlink:href="#radial-gradient"/><radialGradient id="radial-gradient-27" cx="382.87" cy="272.79" r="74.88" xlink:href="#radial-gradient"/><radialGradient id="radial-gradient-28" cx="535.84" cy="105.08" r="79.72" xlink:href="#radial-gradient"/><radialGradient id="radial-gradient-29" cx="557.32" cy="133.5" r="83.06" xlink:href="#radial-gradient"/><radialGradient id="radial-gradient-30" cx="551.51" cy="123.3" r="82.21" xlink:href="#radial-gradient"/><radialGradient id="radial-gradient-31" cx="564.5" cy="155.4" r="83.8" xlink:href="#radial-gradient"/><radialGradient id="radial-gradient-32" cx="561.67" cy="144.24" r="83.6" xlink:href="#radial-gradient"/><radialGradient id="radial-gradient-33" cx="565.78" cy="166.84" r="83.66" xlink:href="#radial-gradient"/><radialGradient id="radial-gradient-34" cx="478.28" cy="77.06" r="71.83" xlink:href="#radial-gradient"/><radialGradient id="radial-gradient-35" cx="526.16" cy="97.29" r="78.18" xlink:href="#radial-gradient"/><radialGradient id="radial-gradient-36" cx="464.77" cy="75.05" r="70.61" xlink:href="#radial-gradient"/><radialGradient id="radial-gradient-37" cx="491.34" cy="80.33" r="73.28" xlink:href="#radial-gradient"/><radialGradient id="radial-gradient-38" cx="503.77" cy="84.84" r="74.88" xlink:href="#radial-gradient"/><radialGradient id="radial-gradient-39" cx="515.43" cy="90.51" r="76.54" xlink:href="#radial-gradient"/><radialGradient id="radial-gradient-40" cx="544.32" cy="113.79" r="81.08" xlink:href="#radial-gradient"/><radialGradient id="radial-gradient-41" cx="557.32" cy="224.09" r="83.06" xlink:href="#radial-gradient"/><radialGradient id="radial-gradient-42" cx="551.51" cy="234.28" r="82.21" xlink:href="#radial-gradient"/><radialGradient id="radial-gradient-43" cx="535.84" cy="252.5" r="79.72" xlink:href="#radial-gradient"/><radialGradient id="radial-gradient-44" cx="544.32" cy="243.8" r="81.08" xlink:href="#radial-gradient"/><radialGradient id="radial-gradient-45" cx="565.78" cy="190.75" r="83.66" xlink:href="#radial-gradient"/><radialGradient id="radial-gradient-46" cx="564.5" cy="202.19" r="83.8" xlink:href="#radial-gradient"/><radialGradient id="radial-gradient-47" cx="561.67" cy="213.35" r="83.6" xlink:href="#radial-gradient"/><radialGradient id="radial-gradient-48" cx="478.28" cy="280.53" r="71.82" xlink:href="#radial-gradient"/><radialGradient id="radial-gradient-49" cx="443.32" cy="283.26" r="70.34" xlink:href="#radial-gradient"/><radialGradient id="radial-gradient-50" cx="491.34" cy="277.26" r="73.28" xlink:href="#radial-gradient"/><radialGradient id="radial-gradient-51" cx="464.77" cy="282.54" r="70.61" xlink:href="#radial-gradient"/><radialGradient id="radial-gradient-52" cx="526.16" cy="260.29" r="78.18" xlink:href="#radial-gradient"/><radialGradient id="radial-gradient-53" cx="503.77" cy="272.75" r="74.88" xlink:href="#radial-gradient"/><radialGradient id="radial-gradient-54" cx="515.43" cy="267.07" r="76.54" xlink:href="#radial-gradient"/><radialGradient id="radial-gradient-55" cx="443.32" cy="144.02" r="69.27" gradientTransform="translate(-117.23) scale(1.35 1.39)" gradientUnits="userSpaceOnUse"><stop offset="0" stop-color="#010101"/><stop offset="1" stop-color="#010101" stop-opacity="0"/></radialGradient></defs><title>celebration_2019_vector</title><g class="cls-1"><polygon class="cls-2" points="17.58 189.85 10.91 206.69 317.79 278.08 17.58 189.85"/><polygon class="cls-3" points="0 294.99 2.11 312.68 317.62 284.64 0 294.99"/><polygon class="cls-4" points="7.83 220.23 3.41 237.62 317.67 278.75 7.83 220.23"/><polygon class="cls-5" points="2.11 251.38 0 269.07 317.62 279.43 2.11 251.38"/><polygon class="cls-6" points="10.91 357.37 17.58 374.21 317.79 285.98 10.91 357.37"/><polygon class="cls-7" points="56.77 443.08 69.54 457.06 318.67 287.84 56.77 443.08"/><polygon class="cls-8" points="37.77 416.06 48.63 431.19 318.3 287.25 37.77 416.06"/><polygon class="cls-9" points="22.41 387.37 31.24 403.45 318 286.62 22.41 387.37"/><polygon class="cls-10" points="3.41 326.45 7.83 343.82 317.67 285.31 3.41 326.45"/><polygon class="cls-11" points="287.27 1.9 266.77 3.91 323.01 273.55 287.27 1.9"/><polygon class="cls-12" points="150.5 43.76 133.06 53.27 320.22 274.71 150.5 43.76"/><polygon class="cls-13" points="182.41 28.35 163.84 36.12 320.86 274.32 182.41 28.35"/><polygon class="cls-14" points="216.13 16.14 196.66 22.06 321.54 274 216.13 16.14"/><polygon class="cls-15" points="31.24 160.6 22.41 176.69 318 277.43 31.24 160.6"/><polygon class="cls-16" points="251.24 7.29 231.13 11.27 322.26 273.74 251.24 7.29"/><polygon class="cls-17" points="69.54 107.01 56.77 120.98 318.67 276.22 69.54 107.01"/><polygon class="cls-18" points="79.18 468.08 93.7 480.73 319.12 288.39 79.18 468.08"/><polygon class="cls-19" points="93.7 83.33 79.18 95.98 319.12 275.67 93.7 83.33"/><polygon class="cls-20" points="120.8 62.16 104.72 73.31 319.64 275.16 120.8 62.16"/><polygon class="cls-21" points="48.63 132.88 37.77 148 318.3 276.81 48.63 132.88"/><polygon class="cls-22" points="231.12 552.79 251.24 556.77 322.26 290.32 231.12 552.79"/><polygon class="cls-23" points="266.77 560.15 287.27 562.16 323.01 290.51 266.77 560.15"/><polygon class="cls-24" points="323.79 273.39 344.43 0 323.79 0 323.79 0.05 303.15 0.05 323.79 273.44 323.79 273.39"/><polygon class="cls-25" points="104.72 490.74 120.8 501.9 319.64 288.9 104.72 490.74"/><polygon class="cls-26" points="196.66 542 216.13 547.92 321.54 290.06 196.66 542"/><polygon class="cls-27" points="133.06 510.79 150.5 520.3 320.22 289.34 133.06 510.79"/><polygon class="cls-28" points="163.84 527.94 182.41 535.71 320.86 289.74 163.84 527.94"/><polygon class="cls-29" points="568.39 95.93 553.87 83.28 328.45 275.62 568.39 95.93"/><polygon class="cls-30" points="625.16 176.63 616.34 160.55 329.57 277.38 625.16 176.63"/><polygon class="cls-31" points="609.81 147.94 598.94 132.82 329.28 276.76 609.81 147.94"/><polygon class="cls-32" points="644.16 237.56 639.75 220.18 329.91 278.7 644.16 237.56"/><polygon class="cls-33" points="636.66 206.63 629.99 189.8 329.79 278.03 636.66 206.63"/><polygon class="cls-34" points="647.58 269.02 645.46 251.33 329.95 279.37 647.58 269.02"/><polygon class="cls-35" points="416.45 11.22 396.34 7.24 325.31 273.69 416.45 11.22"/><polygon class="cls-36" points="542.85 73.26 526.77 62.11 327.93 275.11 542.85 73.26"/><polygon class="cls-37" points="380.81 3.85 360.3 1.85 324.56 273.5 380.81 3.85"/><polygon class="cls-38" points="450.91 22 431.44 16.09 326.03 273.94 450.91 22"/><polygon class="cls-39" points="483.73 36.07 465.16 28.3 326.72 274.27 483.73 36.07"/><polygon class="cls-40" points="514.51 53.22 497.08 43.7 327.36 274.66 514.51 53.22"/><polygon class="cls-41" points="590.81 120.93 578.03 106.95 328.9 276.17 590.81 120.93"/><polygon class="cls-42" points="616.34 403.41 625.16 387.32 329.57 286.57 616.34 403.41"/><polygon class="cls-43" points="598.94 431.13 609.81 416.01 329.28 287.2 598.94 431.13"/><polygon class="cls-44" points="553.87 480.67 568.39 468.03 328.45 288.34 553.87 480.67"/><polygon class="cls-45" points="578.03 457 590.81 443.03 328.9 287.79 578.03 457"/><polygon class="cls-46" points="645.46 312.63 647.58 294.93 329.95 284.58 645.46 312.63"/><polygon class="cls-47" points="639.75 343.77 644.16 326.39 329.91 285.26 639.75 343.77"/><polygon class="cls-48" points="629.99 374.16 636.66 357.32 329.79 285.93 629.99 374.16"/><polygon class="cls-49" points="396.34 556.72 416.45 552.74 325.31 290.27 396.34 556.72"/><polygon class="cls-50" points="323.79 290.62 303.15 564.01 323.79 564.01 323.79 563.96 344.43 563.96 323.79 290.57 323.79 290.62"/><polygon class="cls-51" points="431.44 547.86 450.91 541.95 326.03 290.01 431.44 547.86"/><polygon class="cls-52" points="360.3 562.11 380.81 560.1 324.56 290.45 360.3 562.11"/><polygon class="cls-53" points="526.77 501.84 542.85 490.69 327.93 288.84 526.77 501.84"/><polygon class="cls-54" points="465.16 535.66 483.73 527.89 326.72 289.69 465.16 535.66"/><polygon class="cls-55" points="497.08 520.25 514.51 510.73 327.36 289.29 497.08 520.25"/></g><path class="cls-56" d="M573.31,200.33c0-53.21-41.77-96.35-93.31-96.35s-93.31,43.14-93.31,96.35,41.78,96.35,93.31,96.35S573.31,253.54,573.31,200.33Z" transform="translate(-156.21 33.28)"/><path class="cls-57" d="M238,270.42a22.5,22.5,0,0,0-11.79,4.22A18.89,18.89,0,0,0,219,289.18a23.21,23.21,0,0,0,4.19,12.65c2.14,2.73,7.55,8.49,7.55,8.49a.85.85,0,0,1,.19.52.76.76,0,0,1-.75.77H180.87v22.51h59.24a18.7,18.7,0,0,0,13.78-5.79,21.16,21.16,0,0,0,.35-27.61c-1.32-1.65-6.6-7.38-7.69-8.57a.59.59,0,0,1-.21-.46.61.61,0,0,1,.4-.61h28.53v43h21.94V291.18h26.64V270.42Z" transform="translate(-156.21 33.28)"/><path class="cls-57" d="M447.13,311.57c-3.67,0-3.93-1.53-3.93-1.73,0-.39.47-.64.47-.64a35.45,35.45,0,0,0,4.18-2.95c6-4.79,6.69-11.38,6.69-14.91a19.36,19.36,0,0,0-6.64-15.26A23.74,23.74,0,0,0,434,270.42h-43.1v63.34a.38.38,0,0,0,.37.37h24V316.37c0-.32.46,0,.46,0l12.5,13c4.44,4.63,11.79,4.79,11.79,4.79h36.9V311.57ZM429.38,296.5H415.92a.53.53,0,0,1-.36-.53l0-7a.55.55,0,0,1,.37-.53h12.34a4.06,4.06,0,0,1,4.34,4.16A3.84,3.84,0,0,1,429.38,296.5Z" transform="translate(-156.21 33.28)"/><path class="cls-57" d="M368.07,271a.77.77,0,0,0-.7-.56H334.24a.74.74,0,0,0-.69.56s-18.31,62.46-18.31,62.58a.55.55,0,0,0,.55.56h21.9a.61.61,0,0,0,.35-.44l2.54-8.42a.59.59,0,0,1,.51-.36h20.2a.56.56,0,0,1,.5.36l2.61,8.42a.66.66,0,0,0,.35.44h21.56a.54.54,0,0,0,.54-.55C386.85,333.47,368.07,271,368.07,271Zm-12.15,36.6h-9c-.34,0-.55-.37-.55-.72,0-.13,4.81-16.11,4.81-16.11.17-.61.22-.63.25-.63h0s.08,0,.25.63c0,0,4.8,16,4.8,16.11C356.46,307.21,356.25,307.58,355.92,307.58Z" transform="translate(-156.21 33.28)"/><path class="cls-57" d="M621.64,271.08a.79.79,0,0,0-.7-.59H587.8a.82.82,0,0,0-.7.57s-18.31,62.45-18.31,62.57a.56.56,0,0,0,.54.56h21.91a.58.58,0,0,0,.35-.42l2.55-8.43a.57.57,0,0,1,.5-.36l20.21,0a.62.62,0,0,1,.49.38l2.61,8.43a.56.56,0,0,0,.35.42h21.55a.54.54,0,0,0,.55-.55C640.4,333.53,621.64,271.08,621.64,271.08Zm-12.17,36.57h-9c-.32,0-.55-.37-.55-.72,0-.13,4.81-16.11,4.81-16.11.17-.61.19-.62.25-.62h0c.07,0,.09,0,.25.62,0,0,4.82,16,4.82,16.11C610,307.28,609.76,307.65,609.47,307.65Z" transform="translate(-156.21 33.28)"/><path class="cls-57" d="M748.64,291.14h30.49V270.49H739.92a22.4,22.4,0,0,0-11.79,4.21,18.88,18.88,0,0,0-7.25,14.54,23.17,23.17,0,0,0,4.19,12.65c2.15,2.74,7.54,8.46,7.54,8.46a.71.71,0,0,1,.2.51.76.76,0,0,1-.76.77H701.84c-3.66,0-3.92-1.53-3.92-1.75,0-.38.45-.63.45-.63a35.59,35.59,0,0,0,4.2-2.94c6-4.8,6.68-11.39,6.68-14.92a19.39,19.39,0,0,0-6.63-15.27,23.69,23.69,0,0,0-13.88-5.63h-43.1s0,63.31,0,63.32a.38.38,0,0,0,.37.37h24V316.43c0-.32.46,0,.46,0l12.5,13c4.44,4.63,11.78,4.8,11.78,4.8H742a18.74,18.74,0,0,0,13.78-5.79,21.09,21.09,0,0,0,.36-27.57c-1.33-1.65-6.6-7.41-7.69-8.6a.59.59,0,0,1-.22-.47A.62.62,0,0,1,748.64,291.14Zm-64.54,5.42H670.64a.53.53,0,0,1-.36-.52l0-7a.53.53,0,0,1,.36-.52H683a4.06,4.06,0,0,1,4.34,4.16A3.82,3.82,0,0,1,684.1,296.56Z" transform="translate(-156.21 33.28)"/><path class="cls-57" d="M557.84,334.19c.16,0,.27-.13.32-.31,0,0,18.57-62.95,18.57-63a.35.35,0,0,0-.26-.37H553.6c-.13,0-.2.1-.22.23s-4.73,16.37-4.74,16.38-.09.22-.21.22a.28.28,0,0,1-.23-.23l-5-16.39a.24.24,0,0,0-.22-.21H517.76a.25.25,0,0,0-.17.15l-4.45,16.45c0,.14-.09.22-.21.22a.21.21,0,0,1-.21-.19L508,270.69a.22.22,0,0,0-.18-.2H483.42a.36.36,0,0,0-.36.37,1,1,0,0,0,0,.11s18.84,62.89,18.84,62.92c.06.18.17.3.33.3H522.5c.12,0,.24-.17.28-.3l7.05-23.41h0c0-.14.09-.22.21-.22s.19.09.23.22L537.15,334a.28.28,0,0,0,.27.21Z" transform="translate(-156.21 33.28)"/><polygon class="cls-57" points="604.93 363.83 604.93 364.31 606.12 364.31 606.12 367.5 606.61 367.5 606.61 364.3 607.8 364.3 607.8 363.83 604.93 363.83"/><polygon class="cls-57" points="608.17 363.83 608.17 367.5 608.63 367.5 608.63 364.58 609.56 367.5 610.1 367.5 611.04 364.58 611.04 367.5 611.5 367.5 611.5 363.83 610.85 363.83 609.83 366.82 608.79 363.83 608.17 363.83"/><path class="cls-58" d="M777.07,250.94H549.5V247.5s164.49-.21,177.91,0C770.27,248,777.07,250.94,777.07,250.94Z" transform="translate(-156.21 33.28)"/><path class="cls-58" d="M508.91,118a85.78,85.78,0,0,1,42.84,39.83A85.3,85.3,0,0,1,546.39,251h4.16a88.24,88.24,0,0,0,15.85-50.65C566.4,162.05,542.28,129.51,508.91,118Z" transform="translate(-156.21 33.28)"/><path class="cls-58" d="M182.93,250.94H410.49V247.5s-164.48-.21-177.9,0C189.73,248,182.93,250.94,182.93,250.94Z" transform="translate(-156.21 33.28)"/><path class="cls-58" d="M451.09,118a85.78,85.78,0,0,0-42.84,39.83A85.3,85.3,0,0,0,413.61,251h-4.16a88.24,88.24,0,0,1-15.86-50.65C393.59,162.05,417.72,129.51,451.09,118Z" transform="translate(-156.21 33.28)"/><path class="cls-57" d="M207.76,354.49c23.67,0,27.56,1.5,27.56,15.72v10.58H211.38V370.68c0-2.71-.69-3.74-3.89-3.74-2.93,0-3.07,1.4-3.07,3.74v44.46c0,2.62.84,3.83,3.48,3.83,2.23,0,3.48-.93,3.48-2.52V398.67h23.94v16.94c0,14-3.34,15.91-27.42,15.91-23.52,0-27.42-1.59-27.42-15.91v-45.4C180.48,356.36,183.13,354.49,207.76,354.49Z" transform="translate(-156.21 33.28)"/><path class="cls-57" d="M244.92,355h38v12.26h-14.2V383h14.2v12.35h-14.2V418.6h14.2V431h-38Z" transform="translate(-156.21 33.28)"/><path class="cls-57" d="M292.66,355h23.8V418.6h14.19V431h-38Z" transform="translate(-156.21 33.28)"/><path class="cls-57" d="M339.7,355h38v12.26H363.5V383h14.19v12.35H363.5V418.6h14.19V431h-38Z" transform="translate(-156.21 33.28)"/><path class="cls-57" d="M387.43,355h27.28c24.08,0,27.56,2.24,27.56,15.72v8c0,6.92-3.06,10.39-10.72,11.51,8.49,2.15,10.72,5.43,10.72,12.63v12.36c0,13.38-3.2,15.81-27.42,15.81H387.43Zm30.9,16c0-3-.69-3.74-5.15-3.74h-1.81v15.91c.7,0,1.53.09,2.09.09,3.34,0,4.87-.65,4.87-2.43V371Zm0,29.58c0-3-.69-3.75-5.15-3.75h-1.81V418.6c.7,0,1.53.09,2.09.09,3.34,0,4.87-.65,4.87-2.43V400.54Z" transform="translate(-156.21 33.28)"/><path class="cls-57" d="M451.87,355h27.28c24.08,0,27.56,2.24,27.56,15.72v7.86c0,8.52-.56,12.83-11.13,15.35,8.62,1.69,11.13,5.15,11.13,12.36V431H482.77V404.84c0-3.09-1.11-4-5.57-4h-1.39V431H451.87Zm30.9,17.31v-.93c0-3.19-.14-4.12-4.87-4.12h-2.09v19.47c.84,0,1.53.09,2.23.09,3.75,0,4.73-.75,4.73-3V372.27Z" transform="translate(-156.21 33.28)"/><path class="cls-57" d="M527.72,355h28.95l14.62,76H548.74l-1.81-15h-9.61l-1.81,15H513.24Zm18.1,48.67-3.62-29.3-3.62,29.3Z" transform="translate(-156.21 33.28)"/><path class="cls-57" d="M583.69,367.5H571.44V355h48.3V367.5H607.5V431H583.69Z" transform="translate(-156.21 33.28)"/><path class="cls-57" d="M626.83,355h23.81v76H626.83Z" transform="translate(-156.21 33.28)"/><path class="cls-57" d="M687.52,354.49c23.66,0,27.56,1.59,27.56,15.72v45.4c0,14-3.34,15.91-27.42,15.91-23.53,0-27.42-1.59-27.42-15.91v-45.4C660.24,356.46,662.88,354.49,687.52,354.49Zm-3.34,60.65c0,2.62.69,3.83,3.48,3.83,2.22,0,3.48-.84,3.48-2.33v-46c0-2.71-.7-3.74-3.9-3.74-2,0-3.06.84-3.06,2.34v45.86Z" transform="translate(-156.21 33.28)"/><path class="cls-57" d="M724.67,355h22.27l11.84,38.93V355h20.74v76H757.25l-12-37.25V431h-20.6Z" transform="translate(-156.21 33.28)"/><path class="cls-59" d="M542.33,200.9c0-35.54-27.91-64.36-62.33-64.36s-62.33,28.82-62.33,64.36,27.91,64.36,62.33,64.36S542.33,236.45,542.33,200.9Z" transform="translate(-156.21 33.28)"/><path class="cls-60" d="M536.44,197.37c0-34.79-25.27-63-56.44-63s-56.44,28.19-56.44,63,25.27,63,56.44,63S536.44,232.16,536.44,197.37Z" transform="translate(-156.21 33.28)"/><polygon class="cls-61" points="323.6 112.72 326.62 235.56 335.3 230.97 328.58 240.52 355.17 243.42 328.58 246.32 336.68 255.81 326.62 248.47 323.6 282.64 320.59 248.47 311.35 254.5 318.48 246.32 292.41 243.42 318.48 240.52 311.9 230.97 320.59 235.56 323.6 112.72"/><polygon class="cls-61" points="327.36 241.11 337.31 236.8 329.01 242.86 327.36 241.11"/><polygon class="cls-61" points="327.36 245.73 337.31 250.04 329.01 243.98 327.36 245.73"/><polygon class="cls-61" points="320.23 245.73 310.27 250.04 318.56 243.98 320.23 245.73"/><polygon class="cls-61" points="320.23 241.11 310.27 236.8 318.56 242.86 320.23 241.11"/><path class="cls-62" d="M196.77,215.32c0-10,0-19.63,12.69-19.63,7.85,0,11,4.48,10.71,12.63h-7.55c0-5-.87-6.94-3.16-6.94-4.33,0-4.89,4.21-4.89,13.94s.56,14,4.89,14c3.57,0,3.42-4.74,3.52-7.74h7.59c0,10.16-3.92,13.43-11.11,13.43C196.77,235,196.77,225.27,196.77,215.32Z" transform="translate(-156.21 33.28)"/><path class="cls-62" d="M241,211.53V196.32h7.7v38H241V217.38h-8.82v16.94h-7.7v-38h7.7v15.21Z" transform="translate(-156.21 33.28)"/><path class="cls-62" d="M254.1,234.32v-38h7.69v38Z" transform="translate(-156.21 33.28)"/><path class="cls-62" d="M266.64,215.32c0-10,0-19.63,12.69-19.63,7.85,0,11,4.48,10.71,12.63h-7.55c0-5-.87-6.94-3.16-6.94-4.33,0-4.89,4.21-4.89,13.94s.56,14,4.89,14c3.57,0,3.42-4.74,3.52-7.74h7.59c0,10.16-3.92,13.43-11.11,13.43C266.64,235,266.64,225.27,266.64,215.32Z" transform="translate(-156.21 33.28)"/><path class="cls-62" d="M291.27,234.32l10.2-38h10.14l10,38h-8.1l-2-8.42H301l-2.09,8.42Zm14.84-30.68H306l-3.52,16.42h7.34Z" transform="translate(-156.21 33.28)"/><path class="cls-62" d="M340.79,208c0-3.53-.51-6.63-4.59-6.63-4.79,0-4.79,6.68-4.79,14.05,0,11.89,1.12,14,5.5,14a11.78,11.78,0,0,0,3.82-.74v-8.42h-4.18v-5.84h11.88v19.26A68.27,68.27,0,0,1,338,235c-12.94,0-14.42-5.53-14.42-20,0-9.58.45-19.32,13.05-19.32,7.54,0,12.23,4.37,11.77,12.32Z" transform="translate(-156.21 33.28)"/><path class="cls-62" d="M353.5,215.32c0-10,0-19.63,12.69-19.63s12.69,9.58,12.69,19.63,0,19.64-12.69,19.64S353.5,225.27,353.5,215.32Zm17.58,0c0-9.73-.56-13.94-4.89-13.94s-4.9,4.21-4.9,13.94.56,14,4.9,14S371.08,225.06,371.08,215.32Z" transform="translate(-156.21 33.28)"/><path class="cls-62" d="M589.12,234.83V228c22-16.29,26.54-18.18,26.54-23,0-1.95-1.29-3.78-5.29-3.78-5.78,0-6.08,3.05-6.08,5.56H590.22c-1-7.23,6.28-11.24,19.16-11.24,12.07,0,20.36,2.73,20.36,10,0,8.73-18.27,18.63-25.85,23.3h26.55v6Z" transform="translate(-156.21 33.28)"/><path class="cls-62" d="M678,214.82c0,12.17-1.4,20-20.16,20s-20.15-7.84-20.15-20c0-14.85,3-19.8,20.15-19.8S678,200,678,214.82Zm-26.25.11c0,11.73.51,14.23,6.09,14.23s6.09-2.5,6.09-14.23c0-12-.1-14.23-6.09-14.23S651.72,203,651.72,214.93Z" transform="translate(-156.21 33.28)"/><path class="cls-62" d="M684.88,202c5-1.56,9.88-3.39,13.48-6h13.36v38.8H696.66V205a89.76,89.76,0,0,1-11.78,4.33Z" transform="translate(-156.21 33.28)"/><path class="cls-62" d="M737.79,225.21a3.49,3.49,0,0,0,1,2.73,6.05,6.05,0,0,0,4.19,1.22c7,0,6.19-3.17,6.19-12.4a23.51,23.51,0,0,1-11.58,2.56c-10.67,0-14.77-5.34-14.77-10.51,0-7.61,4.2-13.79,19.86-13.79,20.66,0,20.56,9.18,20.56,20.07,0,9.57-.3,19.74-20.66,19.74-12.07,0-19.06-2.28-18.76-9.62ZM742.87,214c6,0,6.29-4.5,6.29-6.89s-.2-6.73-6.19-6.73-6.08,4.51-6.08,6.9S736.89,214,742.87,214Z" transform="translate(-156.21 33.28)"/></svg>