<svg id="Layer_1" data-name="Layer 1" xmlns="http://www.w3.org/2000/svg" xmlns:xlink="http://www.w3.org/1999/xlink" width="592.74" height="500" viewBox="0 0 592.74 500"><defs><style>.cls-1{opacity:0.4;}.cls-2{fill:url(#radial-gradient);}.cls-3{fill:url(#radial-gradient-2);}.cls-4{fill:url(#radial-gradient-3);}.cls-5{fill:url(#radial-gradient-4);}.cls-6{fill:url(#radial-gradient-5);}.cls-7{fill:url(#radial-gradient-6);}.cls-8{fill:url(#radial-gradient-7);}.cls-9{fill:url(#radial-gradient-8);}.cls-10{fill:url(#radial-gradient-9);}.cls-11{fill:url(#radial-gradient-10);}.cls-12{fill:url(#radial-gradient-11);}.cls-13{fill:url(#radial-gradient-12);}.cls-14{fill:url(#radial-gradient-13);}.cls-15{fill:url(#radial-gradient-14);}.cls-16{fill:url(#radial-gradient-15);}.cls-17{fill:url(#radial-gradient-16);}.cls-18{fill:url(#radial-gradient-17);}.cls-19{fill:url(#radial-gradient-18);}.cls-20{fill:url(#radial-gradient-19);}.cls-21{fill:url(#radial-gradient-20);}.cls-22{fill:url(#radial-gradient-21);}.cls-23{fill:url(#radial-gradient-22);}.cls-24{fill:url(#radial-gradient-23);}.cls-25{fill:url(#radial-gradient-24);}.cls-26{fill:url(#radial-gradient-25);}.cls-27{fill:url(#radial-gradient-26);}.cls-28{fill:url(#radial-gradient-27);}.cls-29{fill:url(#radial-gradient-28);}.cls-30{fill:url(#radial-gradient-29);}.cls-31{fill:url(#radial-gradient-30);}.cls-32{fill:url(#radial-gradient-31);}.cls-33{fill:url(#radial-gradient-32);}.cls-34{fill:url(#radial-gradient-33);}.cls-35{fill:url(#radial-gradient-34);}.cls-36{fill:url(#radial-gradient-35);}.cls-37{fill:url(#radial-gradient-36);}.cls-38{fill:url(#radial-gradient-37);}.cls-39{fill:url(#radial-gradient-38);}.cls-40{fill:url(#radial-gradient-39);}.cls-41{fill:url(#radial-gradient-40);}.cls-42{fill:url(#radial-gradient-41);}.cls-43{fill:url(#radial-gradient-42);}.cls-44{fill:url(#radial-gradient-43);}.cls-45{fill:url(#radial-gradient-44);}.cls-46{fill:url(#radial-gradient-45);}.cls-47{fill:url(#radial-gradient-46);}.cls-48{fill:url(#radial-gradient-47);}.cls-49{fill:url(#radial-gradient-48);}.cls-50{fill:url(#radial-gradient-49);}.cls-51{fill:url(#radial-gradient-50);}.cls-52{fill:url(#radial-gradient-51);}.cls-53{fill:url(#radial-gradient-52);}.cls-54{fill:url(#radial-gradient-53);}.cls-55{fill:url(#radial-gradient-54);}.cls-56,.cls-59,.cls-60,.cls-61{fill-rule:evenodd;}.cls-56{fill:url(#radial-gradient-55);}.cls-57,.cls-61{fill:#fff;}.cls-58{fill:#919396;}.cls-59,.cls-62{fill:#ffe900;}</style><radialGradient id="radial-gradient" cx="42.33" cy="208.39" r="103.08" gradientTransform="matrix(1, 0, 0, -1, 108.11, 415.8)" gradientUnits="userSpaceOnUse"><stop offset="0" stop-color="#ffe900"/><stop offset="0.12" stop-color="#fbe500" stop-opacity="0.98"/><stop offset="0.25" stop-color="#eeda00" stop-opacity="0.93"/><stop offset="0.37" stop-color="#dac700" stop-opacity="0.85"/><stop offset="0.5" stop-color="#bcac00" stop-opacity="0.74"/><stop offset="0.63" stop-color="#978a00" stop-opacity="0.59"/><stop offset="0.76" stop-color="#696000" stop-opacity="0.41"/><stop offset="0.89" stop-color="#342f00" stop-opacity="0.2"/><stop offset="1" stop-opacity="0"/></radialGradient><radialGradient id="radial-gradient-2" cx="37.26" cy="151.03" r="103.16" xlink:href="#radial-gradient"/><radialGradient id="radial-gradient-3" cx="38.84" cy="194.62" r="103.33" xlink:href="#radial-gradient"/><radialGradient id="radial-gradient-4" cx="37.26" cy="180.52" r="103.16" xlink:href="#radial-gradient"/><radialGradient id="radial-gradient-5" cx="42.33" cy="123.17" r="103.08" xlink:href="#radial-gradient"/><radialGradient id="radial-gradient-6" cx="63.71" cy="85.63" r="99.98" xlink:href="#radial-gradient"/><radialGradient id="radial-gradient-7" cx="54.85" cy="97.35" r="101.38" xlink:href="#radial-gradient"/><radialGradient id="radial-gradient-8" cx="47.69" cy="109.92" r="102.43" xlink:href="#radial-gradient"/><radialGradient id="radial-gradient-9" cx="38.84" cy="136.92" r="103.33" xlink:href="#radial-gradient"/><radialGradient id="radial-gradient-10" cx="161.82" cy="293.7" r="87.07" xlink:href="#radial-gradient"/><radialGradient id="radial-gradient-11" cx="99.34" cy="274.63" r="94.38" xlink:href="#radial-gradient"/><radialGradient id="radial-gradient-12" cx="113.73" cy="281.64" r="92.33" xlink:href="#radial-gradient"/><radialGradient id="radial-gradient-13" cx="129.06" cy="287.19" r="90.36" xlink:href="#radial-gradient"/><radialGradient id="radial-gradient-14" cx="47.69" cy="221.64" r="102.43" xlink:href="#radial-gradient"/><radialGradient id="radial-gradient-15" cx="145.16" cy="291.23" r="88.57" xlink:href="#radial-gradient"/><radialGradient id="radial-gradient-16" cx="63.71" cy="245.93" r="99.98" xlink:href="#radial-gradient"/><radialGradient id="radial-gradient-17" cx="74.18" cy="74.89" r="98.31" xlink:href="#radial-gradient"/><radialGradient id="radial-gradient-18" cx="74.18" cy="256.66" r="98.3" xlink:href="#radial-gradient"/><radialGradient id="radial-gradient-19" cx="86.11" cy="266.28" r="96.41" xlink:href="#radial-gradient"/><radialGradient id="radial-gradient-20" cx="54.85" cy="234.19" r="101.38" xlink:href="#radial-gradient"/><radialGradient id="radial-gradient-21" cx="145.16" cy="40.33" r="88.57" xlink:href="#radial-gradient"/><radialGradient id="radial-gradient-22" cx="161.82" cy="37.86" r="87.07" xlink:href="#radial-gradient"/><radialGradient id="radial-gradient-23" cx="188.28" cy="294.6" r="86.74" xlink:href="#radial-gradient"/><radialGradient id="radial-gradient-24" cx="86.11" cy="65.27" r="96.41" xlink:href="#radial-gradient"/><radialGradient id="radial-gradient-25" cx="129.06" cy="44.37" r="90.36" xlink:href="#radial-gradient"/><radialGradient id="radial-gradient-26" cx="99.34" cy="56.91" r="94.38" xlink:href="#radial-gradient"/><radialGradient id="radial-gradient-27" cx="113.73" cy="49.91" r="92.33" xlink:href="#radial-gradient"/><radialGradient id="radial-gradient-28" cx="302.35" cy="256.71" r="98.31" xlink:href="#radial-gradient"/><radialGradient id="radial-gradient-29" cx="328.84" cy="221.68" r="102.43" xlink:href="#radial-gradient"/><radialGradient id="radial-gradient-30" cx="321.68" cy="234.25" r="101.38" xlink:href="#radial-gradient"/><radialGradient id="radial-gradient-31" cx="337.69" cy="194.68" r="103.33" xlink:href="#radial-gradient"/><radialGradient id="radial-gradient-32" cx="334.2" cy="208.43" r="103.08" xlink:href="#radial-gradient"/><radialGradient id="radial-gradient-33" cx="339.27" cy="180.57" r="103.16" xlink:href="#radial-gradient"/><radialGradient id="radial-gradient-34" cx="231.37" cy="291.27" r="88.57" xlink:href="#radial-gradient"/><radialGradient id="radial-gradient-35" cx="290.42" cy="266.33" r="96.41" xlink:href="#radial-gradient"/><radialGradient id="radial-gradient-36" cx="214.72" cy="293.74" r="87.06" xlink:href="#radial-gradient"/><radialGradient id="radial-gradient-37" cx="247.47" cy="287.23" r="90.36" xlink:href="#radial-gradient"/><radialGradient id="radial-gradient-38" cx="262.8" cy="281.68" r="92.33" xlink:href="#radial-gradient"/><radialGradient id="radial-gradient-39" cx="277.19" cy="274.69" r="94.38" xlink:href="#radial-gradient"/><radialGradient id="radial-gradient-40" cx="312.82" cy="245.97" r="99.98" xlink:href="#radial-gradient"/><radialGradient id="radial-gradient-41" cx="328.84" cy="109.96" r="102.43" xlink:href="#radial-gradient"/><radialGradient id="radial-gradient-42" cx="321.68" cy="97.4" r="101.37" xlink:href="#radial-gradient"/><radialGradient id="radial-gradient-43" cx="302.35" cy="74.93" r="98.31" xlink:href="#radial-gradient"/><radialGradient id="radial-gradient-44" cx="312.82" cy="85.67" r="99.98" xlink:href="#radial-gradient"/><radialGradient id="radial-gradient-45" cx="339.27" cy="151.08" r="103.16" xlink:href="#radial-gradient"/><radialGradient id="radial-gradient-46" cx="337.69" cy="136.98" r="103.33" xlink:href="#radial-gradient"/><radialGradient id="radial-gradient-47" cx="334.2" cy="123.21" r="103.08" xlink:href="#radial-gradient"/><radialGradient id="radial-gradient-48" cx="231.37" cy="40.37" r="88.57" xlink:href="#radial-gradient"/><radialGradient id="radial-gradient-49" cx="188.28" cy="37" r="86.74" xlink:href="#radial-gradient"/><radialGradient id="radial-gradient-50" cx="247.47" cy="44.41" r="90.36" xlink:href="#radial-gradient"/><radialGradient id="radial-gradient-51" cx="214.72" cy="37.9" r="87.06" xlink:href="#radial-gradient"/><radialGradient id="radial-gradient-52" cx="290.42" cy="65.33" r="96.41" xlink:href="#radial-gradient"/><radialGradient id="radial-gradient-53" cx="262.8" cy="49.96" r="92.33" xlink:href="#radial-gradient"/><radialGradient id="radial-gradient-54" cx="277.19" cy="56.97" r="94.38" xlink:href="#radial-gradient"/><radialGradient id="radial-gradient-55" cx="187.67" cy="208.29" r="85.41" gradientTransform="matrix(1, 0, 0, -1, 0.61, 329.7)" gradientUnits="userSpaceOnUse"><stop offset="0"/><stop offset="0.86" stop-opacity="0.53"/><stop offset="1" stop-opacity="0"/></radialGradient></defs><title>celebration_2019_vector</title><g id="Layer_3" data-name="Layer 3"><g class="cls-1"><polygon class="cls-2" points="16.09 168.3 10 183.23 290.87 246.51 16.09 168.3"/><polygon class="cls-3" points="0 261.5 1.94 277.2 290.72 252.34 0 261.5"/><polygon class="cls-4" points="7.16 195.25 3.13 210.65 290.77 247.12 7.16 195.25"/><polygon class="cls-5" points="1.94 222.84 0 238.54 290.72 247.72 1.94 222.84"/><polygon class="cls-6" points="10 316.82 16.09 331.74 290.87 253.53 10 316.82"/><polygon class="cls-7" points="51.95 392.8 63.66 405.17 291.68 255.18 51.95 392.8"/><polygon class="cls-8" points="34.57 368.83 44.52 382.25 291.35 254.66 34.57 368.83"/><polygon class="cls-9" points="20.52 343.41 28.6 357.67 291.08 254.09 20.52 343.41"/><polygon class="cls-10" points="3.13 289.41 7.16 304.81 290.77 252.94 3.13 289.41"/><polygon class="cls-11" points="262.94 1.69 244.18 3.46 295.67 242.51 262.94 1.69"/><polygon class="cls-12" points="137.76 38.8 121.8 47.24 293.1 243.53 137.76 38.8"/><polygon class="cls-13" points="166.97 25.13 149.97 32.02 293.69 243.19 166.97 25.13"/><polygon class="cls-14" points="197.84 14.32 180.01 19.56 294.31 242.9 197.84 14.32"/><polygon class="cls-15" points="28.6 142.38 20.52 156.63 291.08 245.95 28.6 142.38"/><polygon class="cls-16" points="229.96 6.47 211.55 10 294.98 242.67 229.96 6.47"/><polygon class="cls-17" points="63.66 94.87 51.95 107.25 291.68 244.87 63.66 94.87"/><polygon class="cls-18" points="72.47 414.96 85.77 426.17 292.1 255.66 72.47 414.96"/><polygon class="cls-19" points="85.77 73.89 72.47 85.1 292.1 244.38 85.77 73.89"/><polygon class="cls-20" points="110.57 55.11 95.85 65 292.58 243.93 110.57 55.11"/><polygon class="cls-21" points="44.52 117.81 34.57 131.21 291.35 245.41 44.52 117.81"/><polygon class="cls-22" points="211.55 490.04 229.96 493.57 294.98 257.37 211.55 490.04"/><polygon class="cls-23" points="244.18 496.58 262.94 498.35 295.67 257.54 244.18 496.58"/><polygon class="cls-24" points="296.38 242.36 315.27 0 296.38 0 296.38 0.04 277.49 0.04 296.38 242.4 296.38 242.36"/><polygon class="cls-25" points="95.85 435.04 110.57 444.94 292.58 256.12 95.85 435.04"/><polygon class="cls-26" points="180.01 480.48 197.84 485.72 294.31 257.14 180.01 480.48"/><polygon class="cls-27" points="121.8 452.83 137.76 461.26 293.1 256.51 121.8 452.83"/><polygon class="cls-28" points="149.97 468.02 166.97 474.91 293.69 256.87 149.97 468.02"/><polygon class="cls-29" points="520.27 85.04 506.97 73.83 300.64 244.34 520.27 85.04"/><polygon class="cls-30" points="572.22 156.59 564.14 142.34 301.66 245.91 572.22 156.59"/><polygon class="cls-31" points="558.17 131.17 548.22 117.75 301.39 245.34 558.17 131.17"/><polygon class="cls-32" points="589.61 210.59 585.58 195.19 301.98 247.06 589.61 210.59"/><polygon class="cls-33" points="582.74 183.18 576.65 168.26 301.87 246.47 582.74 183.18"/><polygon class="cls-34" points="592.74 238.5 590.8 222.8 302.02 247.66 592.74 238.5"/><polygon class="cls-35" points="381.19 9.96 362.78 6.43 297.76 242.63 381.19 9.96"/><polygon class="cls-36" points="496.89 64.96 482.17 55.06 300.16 243.88 496.89 64.96"/><polygon class="cls-37" points="348.56 3.42 329.8 1.65 297.09 242.47 348.56 3.42"/><polygon class="cls-38" points="412.73 19.52 394.9 14.28 298.43 242.86 412.73 19.52"/><polygon class="cls-39" points="442.76 31.98 425.77 25.09 299.05 243.15 442.76 31.98"/><polygon class="cls-40" points="470.94 47.2 455 38.74 299.64 243.49 470.94 47.2"/><polygon class="cls-41" points="540.79 107.2 529.08 94.83 301.06 244.82 540.79 107.2"/><polygon class="cls-42" points="564.14 357.62 572.22 343.37 301.66 254.05 564.14 357.62"/><polygon class="cls-43" points="548.22 382.19 558.17 368.79 301.39 254.61 548.22 382.19"/><polygon class="cls-44" points="506.97 426.13 520.27 414.92 300.64 255.62 506.97 426.13"/><polygon class="cls-45" points="529.08 405.13 540.79 392.75 301.06 255.13 529.08 405.13"/><polygon class="cls-46" points="590.8 277.16 592.74 261.46 302.02 252.28 590.8 277.16"/><polygon class="cls-47" points="585.58 304.75 589.61 289.35 301.98 252.88 585.58 304.75"/><polygon class="cls-48" points="576.65 331.7 582.74 316.77 301.87 253.49 576.65 331.7"/><polygon class="cls-49" points="362.78 493.53 381.19 490 297.76 257.33 362.78 493.53"/><polygon class="cls-50" points="296.38 257.64 277.49 500 296.38 500 296.38 499.96 315.27 499.96 296.38 257.6 296.38 257.64"/><polygon class="cls-51" points="394.9 485.68 412.73 480.44 298.43 257.1 394.9 485.68"/><polygon class="cls-52" points="329.8 498.31 348.56 496.54 297.09 257.49 329.8 498.31"/><polygon class="cls-53" points="482.17 444.89 496.89 435 300.16 256.05 482.17 444.89"/><polygon class="cls-54" points="425.77 474.87 442.76 467.98 299.05 256.81 425.77 474.87"/><polygon class="cls-55" points="455 461.2 470.94 452.76 299.64 256.47 455 461.2"/></g><path class="cls-56" d="M273.69,121.41a85.42,85.42,0,1,0-85.41,85.41h0A85.41,85.41,0,0,0,273.69,121.41Z" transform="translate(108.11 85.8)"/><path class="cls-57" d="M-33.21,183.42A20.91,20.91,0,0,0-44,187.16a16.66,16.66,0,0,0-6.64,12.9,20.09,20.09,0,0,0,3.76,11.21c1.94,2.44,6.91,7.53,6.91,7.53a.78.78,0,0,1,.16.46.69.69,0,0,1-.69.69h-45v20h54.27a17.38,17.38,0,0,0,12.63-5.14,18.34,18.34,0,0,0,.31-24.48c-1.21-1.46-6-6.54-7-7.6a.45.45,0,0,1-.19-.4.52.52,0,0,1,.35-.54H.87v38.16H21V201.83H45.36V183.42Z" transform="translate(108.11 85.8)"/><path class="cls-57" d="M158.2,219.91c-3.38,0-3.61-1.36-3.61-1.54s.43-.57.43-.57a29.27,29.27,0,0,0,3.82-2.61A16.1,16.1,0,0,0,165,202a16.87,16.87,0,0,0-6.07-13.53,22.19,22.19,0,0,0-12.7-5H106.74v56.15a.34.34,0,0,0,.34.34h22V224.17c0-.29.44,0,.44,0l11.43,11.48a17.49,17.49,0,0,0,10.8,4.17h33.77v-20Zm-16.26-13.36H129.62a.46.46,0,0,1-.33-.46v-6.26a.46.46,0,0,1,.33-.46H141a3.67,3.67,0,0,1,4,3.37c0,.11,0,.22,0,.33a3.43,3.43,0,0,1-3,3.48Z" transform="translate(108.11 85.8)"/><path class="cls-57" d="M85.83,184a.73.73,0,0,0-.65-.5H54.85a.66.66,0,0,0-.62.5s-16.7,55.38-16.7,55.48a.5.5,0,0,0,.5.5H58.09a.57.57,0,0,0,.31-.37l2.32-7.48a.52.52,0,0,1,.48-.31H79.69a.47.47,0,0,1,.44.31l2.4,7.48a.51.51,0,0,0,.31.37h19.75a.47.47,0,0,0,.48-.48v0ZM74.7,216.49H66.35c-.31,0-.5-.34-.5-.65s4.41-14.28,4.41-14.28c.14-.54.19-.56.23-.56h0l.23.56s4.4,14.16,4.4,14.28-.12.54-.42.54Z" transform="translate(108.11 85.8)"/><path class="cls-57" d="M317.92,184a.75.75,0,0,0-.65-.52H286.94a.76.76,0,0,0-.62.52s-16.7,55.36-16.7,55.46a.47.47,0,0,0,.46.5h20.08a.5.5,0,0,0,.31-.37l2.34-7.48a.57.57,0,0,1,.46-.33h18.49a.51.51,0,0,1,.46.33l2.38,7.48a.57.57,0,0,0,.31.37h19.75a.5.5,0,0,0,.5-.5Zm-11.15,32.44h-8.35a.64.64,0,0,1-.5-.65c0-.13,4.41-14.28,4.41-14.28.16-.54.19-.56.23-.56h0l.23.56s4.4,14.15,4.4,14.28a.65.65,0,0,1-.42.63Z" transform="translate(108.11 85.8)"/><path class="cls-57" d="M434.16,201.81h27.91V183.49H426.19a20.93,20.93,0,0,0-10.79,3.73,16.57,16.57,0,0,0-6.64,12.9,20.18,20.18,0,0,0,3.84,11.21c2,2.42,6.89,7.5,6.89,7.5a.64.64,0,0,1,.19.45.69.69,0,0,1-.69.69H391.33c-3.36,0-3.59-1.35-3.59-1.54s.42-.56.42-.56a36,36,0,0,0,3.84-2.61A16.26,16.26,0,0,0,398.12,202,17,17,0,0,0,392,188.5a21.91,21.91,0,0,0-12.69-5H339.88v56.13a.31.31,0,0,0,.29.33h22.06V224.23c0-.29.42,0,.42,0l11.46,11.48a17.48,17.48,0,0,0,10.77,4.18h43.25a17.74,17.74,0,0,0,12.94-29.58c-1.21-1.46-6-6.56-7-7.62a.49.49,0,0,1-.19-.42A.53.53,0,0,1,434.16,201.81Zm-59.07,4.8H362.78a.44.44,0,0,1-.34-.45v-6.27a.46.46,0,0,1,.34-.46h11.31a3.67,3.67,0,0,1,4,3.37c0,.11,0,.21,0,.31A3.46,3.46,0,0,1,375.09,206.61Z" transform="translate(108.11 85.8)"/><path class="cls-57" d="M259.52,240a.35.35,0,0,0,.29-.27s17-55.82,17-55.88a.32.32,0,0,0-.25-.33H255.7c-.11,0-.17,0-.19.21l-4.34,14.61a.18.18,0,0,1-.19.18.22.22,0,0,1-.21-.2l-4.55-14.62a.18.18,0,0,0-.19-.18H222.84a.29.29,0,0,0-.17.14l-4.07,14.61c0,.13,0,.21-.18.21a.19.19,0,0,1-.19-.16l-4.32-14.62a.21.21,0,0,0-.17-.18H191.41a.34.34,0,0,0-.34.33h0l17.24,55.77a.33.33,0,0,0,.3.28h18.53a.38.38,0,0,0,.27-.28l6.45-20.74h0c0-.13,0-.19.19-.19a.21.21,0,0,1,.21.19l6.26,20.87a.26.26,0,0,0,.25.19Z" transform="translate(108.11 85.8)"/><polygon class="cls-57" points="553.71 322.54 553.71 322.97 554.79 322.97 554.79 325.79 555.25 325.79 555.25 322.95 556.34 322.95 556.34 322.54 553.71 322.54"/><polygon class="cls-57" points="556.67 322.54 556.67 325.79 557.09 325.79 557.09 323.2 557.94 325.79 558.42 325.79 559.3 323.2 559.3 325.79 559.72 325.79 559.72 322.54 559.13 322.54 558.2 325.19 557.24 322.54 556.67 322.54"/><path class="cls-58" d="M460.19,166.16H251.9v-3s150.56-.19,162.81,0C454.08,163.59,460.19,166.16,460.19,166.16Z" transform="translate(108.11 85.8)"/><path class="cls-58" d="M214.74,48.35a77.59,77.59,0,0,1,39.2,35.32,73.56,73.56,0,0,1-4.9,82.55h3.82A76.86,76.86,0,0,0,214.74,48.35Z" transform="translate(108.11 85.8)"/><path class="cls-58" d="M-83.64,166.16H124.65v-3s-150.56-.19-162.81,0C-77.42,163.59-83.64,166.16-83.64,166.16Z" transform="translate(108.11 85.8)"/><path class="cls-58" d="M161.85,48.35a77.64,77.64,0,0,0-39.24,35.28,73.61,73.61,0,0,0,4.88,82.55h-3.8A76.86,76.86,0,0,1,161.85,48.35Z" transform="translate(108.11 85.8)"/><path class="cls-57" d="M-60.91,258c21.67,0,25.24,1.32,25.24,14v9.37H-57.59v-9c0-2.42-.65-3.31-3.57-3.31s-2.8,1.23-2.8,3.31v39.41c0,2.32.75,3.41,3.17,3.41,2.09,0,3.2-.84,3.2-2.26V297.12h21.92v15c0,12.52-3.07,14.11-25,14.11-21.52,0-25-1.4-25-14.11V271.91C-85.88,259.61-83.45,258-60.91,258Z" transform="translate(108.11 85.8)"/><path class="cls-57" d="M-26.91,258.38H7.89v10.85h-13v14h13v11h-13V314.8h13v10.94H-26.91Z" transform="translate(108.11 85.8)"/><path class="cls-57" d="M16.8,258.38H38.57v56.36h13v10.94H16.8Z" transform="translate(108.11 85.8)"/><path class="cls-57" d="M59.84,258.38h34.8v10.85h-13v14h13v11h-13V314.8h13v10.94H59.84Z" transform="translate(108.11 85.8)"/><path class="cls-57" d="M103.55,258.38h25c22,0,25.21,2,25.21,13.94v7c0,6.26-2.79,9.22-9.79,10.21,7.77,1.92,9.79,4.82,9.79,11.2v11c0,11.86-2.92,14-25,14H103.72Zm28.28,14.17c0-2.65-.64-3.32-4.71-3.32h-1.65v14.11h1.9c3.07,0,4.46-.58,4.46-2.08v-8.71Zm0,26.24c0-2.67-.64-3.32-4.71-3.32h-1.65V314.8h1.9c3.07,0,4.46-.58,4.46-2.09V298.79Z" transform="translate(108.11 85.8)"/><path class="cls-57" d="M162.52,258.38h25c22,0,25.21,2,25.21,13.94v6.95c0,7.56-.5,11.38-10.19,13.61,7.89,1.51,10.19,4.58,10.19,11v21.9H190.86V302.59c0-2.73-1-3.57-5.09-3.57H184.5v26.72H162.58Zm28.28,15.41V273c0-2.82-.12-3.65-4.44-3.65h-1.93v17.26h2.09c3.45,0,4.32-.67,4.32-2.65V273.79Z" transform="translate(108.11 85.8)"/><path class="cls-57" d="M232,258.38h26.49l13.38,67.36H251.19l-1.65-13.28h-8.79l-1.67,13.28H218.71Zm16.56,43.15-3.32-26-3.3,26Z" transform="translate(108.11 85.8)"/><path class="cls-57" d="M283.19,269.49H272V258.38h44.21v11.11H305v56.25H283.19Z" transform="translate(108.11 85.8)"/><path class="cls-57" d="M322.68,258.38h21.79v67.36H322.68Z" transform="translate(108.11 85.8)"/><path class="cls-57" d="M378.22,258c21.65,0,25.22,1.4,25.22,14v40.22c0,12.52-3.05,14.11-25.05,14.11-21.54,0-25.05-1.4-25.05-14.11V271.91C353.26,259.7,355.66,258,378.22,258Zm-3.07,53.77c0,2.32.65,3.41,3.2,3.41,2.09,0,3.19-.76,3.19-2.09V272.32c0-2.42-.65-3.31-3.57-3.31-1.79,0-2.82.73-2.82,2.08v40.64Z" transform="translate(108.11 85.8)"/><path class="cls-57" d="M412.33,258.38h20.39l10.84,34.5v-34.5h18.87v67.36H442.05l-10.93-33v33H412.33Z" transform="translate(108.11 85.8)"/><path class="cls-59" d="M245.34,121.81a57,57,0,1,0-57,57,57,57,0,0,0,57-57Z" transform="translate(108.11 85.8)"/><path class="cls-60" d="M239.94,118.68c0-30.83-23.13-55.84-51.66-55.84s-51.67,25-51.67,55.84,23.13,55.83,51.67,55.83S239.94,149.51,239.94,118.68Z" transform="translate(108.11 85.8)"/><polygon class="cls-61" points="296.92 99.92 299.68 208.82 307.63 204.75 301.47 213.22 325.81 215.79 301.47 218.36 308.88 226.79 299.68 220.28 296.92 250.56 294.15 220.28 285.69 225.62 292.23 218.36 268.37 215.79 292.23 213.22 286.21 204.75 294.15 208.82 296.92 99.92"/><polygon class="cls-61" points="300.35 213.74 309.47 209.92 301.87 215.31 300.35 213.74"/><polygon class="cls-61" points="300.35 217.83 309.47 221.65 301.87 216.29 300.35 217.83"/><polygon class="cls-61" points="293.83 217.83 284.71 221.65 292.31 216.29 293.83 217.83"/><polygon class="cls-61" points="293.83 213.74 284.71 209.92 292.31 215.31 293.83 213.74"/><path class="cls-62" d="M-71,134.58c0-8.91,0-17.39,11.62-17.39,7.19,0,10.07,4,9.79,11.19h-6.9c0-4.49-.8-6.26-2.88-6.26-4,0-4.49,3.74-4.49,12.36s.52,12.37,4.49,12.37c3.25,0,3.11-4.17,3.21-6.86h7c0,9-3.59,11.89-10.17,11.89C-71,152-71,143.41-71,134.58Z" transform="translate(108.11 85.8)"/><path class="cls-62" d="M-30.5,131.22V117.74h7v33.69h-7v-15h-8v15h-7.1V117.74h7.1v13.48Z" transform="translate(108.11 85.8)"/><path class="cls-62" d="M-18.5,151.43V117.74h7.1v33.69Z" transform="translate(108.11 85.8)"/><path class="cls-62" d="M-7,134.58c0-8.91,0-17.39,11.61-17.39,7.2,0,10.08,4,9.81,11.19H7.49c0-4.49-.79-6.26-2.9-6.26-4,0-4.47,3.74-4.47,12.36s.5,12.37,4.47,12.37c3.28,0,3.13-4.17,3.24-6.86h7c0,9-3.61,11.89-10.19,11.89C-7,152-7,143.41-7,134.58Z" transform="translate(108.11 85.8)"/><path class="cls-62" d="M15.53,151.43l9.33-33.69h9.29l9.14,33.69H35.88L34,144H24.4l-1.92,7.46Zm13.59-27.14h0L25.9,138.9h6.54Z" transform="translate(108.11 85.8)"/><path class="cls-62" d="M60.84,128.11c0-3.13-.46-5.89-4.17-5.89-4.38,0-4.38,5.93-4.38,12.53,0,10.43,1,12.4,5,12.4a11.29,11.29,0,0,0,3.5-.65V139H57v-5.18H67.92V151a68,68,0,0,1-9.54,1.1c-11.83,0-13.19-4.9-13.19-17.68,0-8.49.42-17.11,11.94-17.11,6.91,0,11.21,3.86,10.79,10.91Z" transform="translate(108.11 85.8)"/><path class="cls-62" d="M72.49,134.58c0-8.91,0-17.39,11.61-17.39s11.62,8.48,11.62,17.39S95.72,152,84.1,152,72.49,143.41,72.49,134.58Zm16.09,0c0-8.62-.52-12.36-4.48-12.36s-4.47,3.74-4.47,12.36S80.13,147,84.1,147s4.48-3.74,4.48-12.38Z" transform="translate(108.11 85.8)"/><path class="cls-62" d="M288.15,151.88v-6c20.11-14.44,24.3-16.13,24.3-20.41,0-1.74-1.19-3.36-4.84-3.36-5.3,0-5.57,2.71-5.57,4.94H289.18c-.9-6.4,5.76-10,17.53-10,11.06,0,18.64,2.4,18.64,8.87,0,7.72-16.7,16.51-23.65,20.64H326v5.32Z" transform="translate(108.11 85.8)"/><path class="cls-62" d="M369.48,134.14c0,10.79-1.28,17.74-18.46,17.74s-18.43-6.95-18.43-17.74c0-13.17,2.74-17.55,18.43-17.55S369.48,121,369.48,134.14Zm-24,.11c0,10.43.46,12.52,5.57,12.52s5.58-2.21,5.58-12.52,0-12.63-5.58-12.63-5.48,2-5.48,12.63Z" transform="translate(108.11 85.8)"/><path class="cls-62" d="M375.8,122.81a44.17,44.17,0,0,0,12.34-5.32h12.23v34.39H386.59V125.42a83.86,83.86,0,0,1-10.79,3.84Z" transform="translate(108.11 85.8)"/><path class="cls-62" d="M424.23,143.35a3,3,0,0,0,.92,2.42,5.56,5.56,0,0,0,3.84,1.08c6.38,0,5.65-2.79,5.65-11a22.2,22.2,0,0,1-10.6,2.26c-9.77,0-13.51-4.74-13.51-9.31,0-6.76,3.82-12.23,18.16-12.23,18.94,0,18.79,8.14,18.79,17.8,0,8.48-.27,17.49-18.91,17.49-11,0-17.45-2.08-17.18-8.53Zm4.65-10c5.49,0,5.76-4,5.76-6.09s-.18-5.89-5.61-5.89-5.57,4-5.57,6.12,0,5.86,5.42,5.86Z" transform="translate(108.11 85.8)"/></g></svg>