<svg id="Layer_1" data-name="Layer 1" xmlns="http://www.w3.org/2000/svg" width="772.64" height="499.25" viewBox="0 0 772.64 499.25"><defs><style>.cls-1,.cls-2{fill:#fde901;}.cls-1,.cls-3{fill-rule:evenodd;}.cls-3{fill:#cac42d;}</style></defs><title>clone_wars_logo</title><path class="cls-1" d="M461.26,292.51h26.18l5.46.15,4.34,4.59.46,4-.26,4-3.93,3.36L489.3,310h-28V292.51Zm-53.82,94.54h52.37V349.26c17,11.24,28.37,37.82,53.82,37.82H618.35c21.18,0,40.73-17.75,40.73-39.27V342c0-23.87-24.69-34.22-27.64-45.09h80V253.26h-96c-7.82,0-19.18,3.15-25.87,7.59-10.87,7.21-8.94,9.89-15.93,17.51-.62,4.25-1.83,6.77-1.83,11.27v8.72l-.1,2.94,3,11.55,21.8,26.21h-66.9c-5.29,0-3,.52-7.28-1.45,2.25-8.17,23.28-11.78,23.28-37.82v-7.27c0-17-21-39.28-46.55-39.28H407.44Z" transform="translate(0.03)"/><rect class="cls-2" x="35.11" y="403.05" width="701.09" height="32"/><polygon class="cls-1" points="102.7 386.83 148.14 386.92 163.1 337.59 179.1 387.05 225.57 387.02 266.38 253.23 218.24 253.19 204.91 299.4 190.74 253.23 139.71 253.2 126.52 300.32 113.65 253.23 60.77 253.39 102.7 386.83"/><path class="cls-1" d="M456.9,238.69h48V192.14c14.88,1.29,38,31.89,39.27,46.55h46.55V107.78H544.17v45.09c-7.67-5-19-20.33-32.91-29.63-11.3-7.59-35.13-15.46-48.54-15.46H456.9Z" transform="translate(0.03)"/><polygon class="cls-1" points="603.83 238.69 736.2 238.69 736.2 199.41 650.38 199.41 650.38 189.23 714.38 189.23 714.38 157.23 651.83 157.23 651.83 147.05 736.2 147.05 736.2 107.78 603.83 107.78 603.83 238.69"/><path class="cls-1" d="M370.78,145.38l4.66.22c11.29,3.09,20.37,11.85,20.37,24.72v7.28c0,10.54-7.07,22.21-17.46,24.72l-6.89.6-9.67.08c-4.5,0-7.58-1.2-12.15-2.51-5.41-5.32-8.66-9.22-10.56-17.08V170.32c0-4.5,1.21-7,1.83-11.26,2.56-3.61,5-9.8,14.17-12l6.52-1.67Zm-17.16-36.12c-14.09,0-35.87,6.2-46.19,16.35-10.92,10.65-20.71,25.65-20.71,41.8v7.28c0,42.42,34,65.45,74.18,65.45h16c32.93,0,69.81-22.17,69.81-58.18V167.41c0-30.71-29.77-58.18-59.63-58.18l-4.41.27-11.59-1.72H359.44C356.08,108.68,356.61,109.26,353.62,109.26Z" transform="translate(0.03)"/><path class="cls-1" d="M319.51,295.4l12.87,39.11-25,.18Zm-77.89,91.65H291l5.87-18.89,46,.18,6.36,18.73h48c-.15-7.13-36-123.57-40.73-133.82l-68.36-.06-6.09.27S241.82,377.83,241.62,387.05Z" transform="translate(0.03)"/><path class="cls-1" d="M92.68,108.26c-28.22,1.56-51,26.64-54.69,50.48v24.72c0,28.26,33,55.28,61.09,55.28H166V199.41H110.71a27.6,27.6,0,0,1-20.36-20.36v-5.79a26.66,26.66,0,0,1,20.36-26.18H166v-39.3H99.08Z" transform="translate(0.03)"/><rect class="cls-2" x="455.47" y="58.32" width="280.73" height="32"/><polygon class="cls-1" points="177.65 238.69 282.38 238.69 282.38 199.41 225.65 199.41 225.65 107.78 177.65 107.78 177.65 238.69"/><rect class="cls-2" x="35.11" y="58.32" width="261.82" height="32"/><path class="cls-3" d="M100,37.81a12.17,12.17,0,0,1-11.35,9c-5.7,0-7-.1-7-.1H80.17l-33.6-.14H27.05c-7.3,2.12-10.73,5.55-12.41,14.55l.08,7.44V432.2l-.19,7.44c2.77,7.11,6.62,12.47,16.76,14.35h5.22l473-.09,6,16.28c1-1.18,4.39-15.28,4.41-16.22l16.78.07,5.2,15.49L547.09,454l13.82.21-12.37,42-13.36.09L529,474.81s-5.44,16.34-7.37,21.36L508.21,496l-10.27-32-32.31.1H29.26L21.92,464c-12.41,0-20.41-12.9-20.41-21.52l.07-7.44V65.6L2,54.26l.88-3.41c10.29-19.94,27.8-17.59,27.8-17.59H71.44c6.7,0,10.3.86,10.3-2.44,0-2.44-9.23-9.28-9.23-13.43,0-3.14-.25-14.44,11-14.44,5.82,0,5.77.07,5.77.07h59.23V13.26l-13.11-.19-7.25.11V45.61H116.51l.2-25.13V13.39l-7.45-.13s-12.71.16-17.59.16S94.28,24,98.75,29.54C98.75,29.51,101.19,32.32,100,37.81ZM70,16.14c0,6.39,5.52,9.7,8.72,14.55H32.15s-14.06-1.9-22.92,7.59C2,45.33,1,49.65.08,53.76l.09,7.5V436.54L0,444c0,14,12.71,23.13,23.61,23.13l5.65-.05h465.6l1,.11,10.51,31.89h16.77c1.19-2.58,5.35-16.38,5.35-16.38l4,16.38h17.41l14.59-48-18.25.27L542,463.13l-3.19-12.08h-21l-2.26,13-3.48-13H36.53l-6.25.09s-4.13,0-8.74-4.51a14,14,0,0,1-4-7l.07-7.44V67.12s-.08-2-.08-4.7.69-7,3.82-10S31,48.84,31,48.84l7.8.07H85s-1.57.1,4,.1c13.18,0,15.13-14.53,12.33-19.78-.75-1.4-4.32-6.05-6.47-9.4a13.68,13.68,0,0,1-1.71-3.6h20.36v32H131v-32h20.36V.14H86c-10.8,0-16,6.45-16,16Z" transform="translate(0.03)"/><path class="cls-3" d="M204.88,3.05h32.38c5.32,0,12.25,5.21,12.25,13.21s-10,13.79-10,13.79-3.77,3.49,4.48,3.49h12.57l475.82-.19h14.44c10.36,0,22.91,6.28,22.91,21.91l-.2,7.44V435.06s.07-4.43.07,7.44-11.27,21.82-20.27,21.82-7.44-.2-7.44-.2H704.71c-6.69,0-9.54-.6-9.54,2.91s6.19,9.15,6.19,9.15,3.21,2.8,3.21,6.37a18.69,18.69,0,0,1-.46,5s-.58,8.53-13.82,8.53H657.55l-4.93-.05a9.55,9.55,0,0,1-6.28-3.09c-4.39-4.8-9.16-9.8-13.54-11.4v14.54H618.35V454h26.16s6.32-.07,7.44-.07,11,1.91,11,13.28-10.21,12.61-10.21,12.61-2.67,4.48,3.77,4.48a66,66,0,0,1,8.43.33h11.61c7.77,0,10.78.23,10.78-1.64,0-2.92-9.64-10.69-9.64-18.77s8.42-10.41,8.42-10.41l1.85-.22,1.81-.17h44.14l8.83-.29s6.29-.25,9.76-3.95c4.78-5.09,4.78-9.8,4.78-9.8l-.2-5.7V68.19s-.18-8.29-.18-9.44-2.17-12.06-13-12.06H721.6l-465-.49h-8.73s-2.27.17-7.76,0c-7.74-.2-20.21-15.94-20.21-15.94l-.1,15.42H204.88Zm80.8,28.21-43.39-.1c4.9-3.64,9.52-7.76,9.52-15a15.48,15.48,0,0,0-15-15.4h-2.3L202.39.55V48.14H221.9V35.79c7.34,7.66,11.45,12.57,18.61,12.57l495.65.4s-1.08.09,6.87.09,11.78,6.82,11.78,13.06.26,370.23.26,370.23l.08,7.45a19.14,19.14,0,0,1-4.46,7.81c-3.39,3.49-6.87,3.33-6.87,3.33l-7.66.29H694s-1.62-.07-5.2-.07C684.37,451,675,455,675,463.85s8.65,17.81,8.65,17.81l-26-.09c2-1.38,5.46-3.44,7.31-11l.37-3.57v-1.78l-.41-2.51c-1.79-6.45-6.43-10.85-13.13-11.66H615.44v48h20.37V487.41c6.91,4.58,7.16,9.5,16,11.64H694a13.11,13.11,0,0,0,9.27-3.77c2.44-3.41,4.13-6.1,4.13-10.73,0-10.22-7-10.08-9-17.5h45l4.07.07c15.46,0,25.11-13.44,25.11-24.22V62.69l0-7.43c0-12.49-8.16-24.37-25-24.37l-5.67-.16h2.91Z" transform="translate(0.03)"/><polygon class="cls-1" points="305.65 68.5 323.11 68.5 323.11 90.32 337.65 90.32 337.65 68.5 352.2 68.5 352.2 90.32 368.2 90.32 368.2 80.14 381.29 80.14 381.29 90.32 397.29 90.32 397.29 58.32 381.29 58.32 381.29 69.96 368.2 69.96 368.2 58.32 305.65 58.32 305.65 68.5"/><polygon class="cls-1" points="401.65 91.78 446.74 91.78 446.74 81.59 419.11 81.59 419.11 78.69 440.92 78.69 440.92 71.41 419.11 71.41 419.11 68.5 446.74 68.5 446.74 58.32 401.65 58.32 401.65 91.78"/><path class="cls-3" d="M147.82,45.56l12-43h22.43l13.82,43.18-11.23.09L182,39.44H162.35l-2.44,6.3-4.23-.1-7.27,0Zm-3.73,2.56,17.89.07,2-5.87h16.53l2.2,5.82h16.85L184.16.19,158.24,0Z" transform="translate(0.03)"/><path class="cls-3" d="M560.87,496.14c3.66-13.38,11.51-40.7,12.77-42.18h22.87c2.85,11.81,7.72,25.79,12.12,42.18h-6.3l-5.57-.09-2.25-5.79h-14l-5.57.09-2,5.44-5.48.33h-5.81Zm16.51-3.46,6-.17,8.8.06,2.1,6.63,6.57.05,11.66-.2L598.3,451l-26.51.1L556.7,498.89l12.18.16h5.87Z" transform="translate(0.03)"/><path class="cls-3" d="M585.57,467.73l2.76,11.12H582Zm-7.06,13.7,13.68.17c-1-4.1-6.88-21.47-6.88-21.47Z" transform="translate(0.03)"/><path class="cls-3" d="M175.11,28l-5.8-.08,2.85-9.4Zm-9.37,2.62,13.34.07-7-20.1Z" transform="translate(0.03)"/><path class="cls-3" d="M644.51,470h-8.7V465.6h8.7s3-.12,3,2.13S644.51,470,644.51,470Zm-11.63,2.91,8.73.06s4.33.06,5.36.06a5,5,0,0,0,4-4.68c0-3-2.49-5.47-3.89-5.47s-5.46-.15-5.46-.15H632.9Z" transform="translate(0.03)"/><path class="cls-3" d="M231.18,19.46h-8.65v-5.2h4.81c1.54,0,2.69-.07,3.58-.09C236.51,14.19,236,19.46,231.18,19.46ZM219.81,22l8.73.06h4.85a5.22,5.22,0,0,0,4.73-4.91,5.06,5.06,0,0,0-4.89-5.22h-.37c-.84,0-4.33-.15-4.33-.15h-8.72Z" transform="translate(0.03)"/></svg>