<svg id="Layer_1" data-name="Layer 1" xmlns="http://www.w3.org/2000/svg" viewBox="0 0 772.6 499.24"><defs><style>.cls-1,.cls-2{fill:#fde901;}.cls-1,.cls-3{fill-rule:evenodd;}.cls-3{fill:#cac42d;}</style></defs><title>clone_wars_logo</title><path class="cls-1" d="M553.75,293.25h26.18l5.46.15,4.34,4.59.46,4-.26,4L586,309.35l-4.21,1.34h-28V293.25Zm-53.82,94.54H552.3V350c17,11.24,28.37,37.82,53.82,37.82H710.84c21.18,0,40.73-17.75,40.73-39.27V342.7c0-23.87-24.69-34.22-27.64-45.09h80V254h-96c-7.82,0-19.18,3.15-25.87,7.59-10.87,7.21-8.94,9.89-15.93,17.51-.62,4.25-1.83,6.77-1.83,11.27v8.72l-.1,2.94,3,11.55L689,339.79h-66.9c-5.29,0-3,.52-7.28-1.45,2.25-8.17,23.28-11.78,23.28-37.82v-7.27c0-17-21-39.28-46.55-39.28H499.93Z" transform="translate(-92.49 -0.74)"/><rect class="cls-2" x="35.08" y="403.05" width="701.09" height="32"/><polygon class="cls-1" points="102.67 386.83 148.11 386.92 163.07 337.59 179.07 387.05 225.54 387.02 266.35 253.23 218.21 253.19 204.88 299.4 190.71 253.23 139.68 253.2 126.49 300.32 113.62 253.23 60.74 253.39 102.67 386.83"/><path class="cls-1" d="M549.39,239.43h48V192.88c14.88,1.29,38,31.89,39.27,46.55h46.55V108.52H636.66v45.09c-7.67-5-19-20.33-32.91-29.63-11.3-7.59-35.13-15.46-48.54-15.46h-5.82Z" transform="translate(-92.49 -0.74)"/><polygon class="cls-1" points="603.8 238.69 736.17 238.69 736.17 199.41 650.35 199.41 650.35 189.23 714.35 189.23 714.35 157.23 651.8 157.23 651.8 147.05 736.17 147.05 736.17 107.78 603.8 107.78 603.8 238.69"/><path class="cls-1" d="M463.27,146.12l4.66.22c11.29,3.09,20.37,11.85,20.37,24.72v7.28c0,10.54-7.07,22.21-17.46,24.72l-6.89.6-9.67.08c-4.5,0-7.58-1.2-12.15-2.51-5.41-5.32-8.66-9.22-10.56-17.08V171.06c0-4.5,1.21-7,1.83-11.26,2.56-3.61,5.05-9.8,14.17-12l6.52-1.67ZM446.11,110c-14.09,0-35.87,6.2-46.19,16.35C389,137,379.21,152,379.21,168.15v7.28c0,42.42,34,65.45,74.18,65.45h16c32.93,0,69.81-22.17,69.81-58.18V168.15c0-30.71-29.77-58.18-59.63-58.18l-4.41.27-11.59-1.72H451.93C448.57,109.42,449.1,110,446.11,110Z" transform="translate(-92.49 -0.74)"/><path class="cls-1" d="M412,296.14l12.87,39.11-25,.18Zm-77.89,91.65,49.41,0,5.87-18.89,46,.18,6.36,18.73h48c-.15-7.13-36-123.57-40.73-133.82l-68.36-.06-6.09.27S334.31,378.57,334.11,387.79Z" transform="translate(-92.49 -0.74)"/><path class="cls-1" d="M185.17,109c-28.22,1.56-51,26.64-54.69,50.48v24.72c0,28.26,33,55.28,61.09,55.28h66.91V200.15H203.2a27.59,27.59,0,0,1-20.36-20.36V174a26.65,26.65,0,0,1,20.36-26.18h55.28V108.52H191.57Z" transform="translate(-92.49 -0.74)"/><rect class="cls-2" x="455.44" y="58.32" width="280.73" height="32"/><polygon class="cls-1" points="177.62 238.69 282.35 238.69 282.35 199.41 225.62 199.41 225.62 107.78 177.62 107.78 177.62 238.69"/><rect class="cls-2" x="35.08" y="58.32" width="261.82" height="32"/><path class="cls-3" d="M192.46,38.55a12.17,12.17,0,0,1-11.35,9c-5.7,0-7-.1-7-.1l-1.45,0-33.6-.14-19.52,0c-7.3,2.12-10.73,5.55-12.41,14.55l.08,7.44,0,363.64-.19,7.44c2.77,7.11,6.62,12.47,16.76,14.35l5.22,0L602,454.64l6,16.28c1-1.18,4.39-15.28,4.41-16.22l16.78.07,5.2,15.49,5.19-15.56,13.82.21-12.37,42-13.36.09-6.15-21.45s-5.44,16.34-7.37,21.36l-13.45-.13-10.27-32-32.31.1H139.21l-17.46,0-7.34-.13C102,464.72,94,451.85,94,443.23l.07-7.44,0-369.45L94.52,55l.88-3.41C105.69,31.65,123.2,34,123.2,34h40.73c6.7,0,10.3.86,10.3-2.44,0-2.44-9.23-9.28-9.23-13.43,0-3.14-.25-14.44,11-14.44,5.82,0,5.77.07,5.77.07H241V14l-13.11-.19-7.25.11V46.35H209l.2-25.13,0-7.09L201.75,14s-12.71.16-17.59.16,2.61,10.53,7.08,16.12C191.24,30.25,193.68,33.06,192.46,38.55Zm-30-21.67c0,6.39,5.52,9.7,8.72,14.55l-46.54,0s-14.06-1.9-22.92,7.59c-7.2,7.05-8.27,11.37-9.15,15.48L92.66,62l0,375.28-.2,7.43c0,14,12.71,23.13,23.61,23.13l5.65-.05,17.46,0H587.32l1,.11,10.51,31.89H615.6c1.19-2.58,5.35-16.38,5.35-16.38L625,499.79l17.41,0,14.59-48-18.25.27-4.3,11.81-3.19-12.08-21,0L608,464.81l-3.48-13-46.4,0H92.66l36.36,0-6.25.09s-4.13,0-8.74-4.51a14.11,14.11,0,0,1-4-7l.07-7.44,0-365.09s-.08-2-.08-4.7.69-7,3.82-10,9.68-3.58,9.68-3.58l7.8.07,46.19,0s-1.57.1,4,.1c13.18,0,15.13-14.53,12.33-19.78-.75-1.4-4.32-6.05-6.47-9.4a13.93,13.93,0,0,1-1.71-3.6h20.36v32h17.46v-32h20.36V.88H178.48C167.68.88,162.48,7.33,162.48,16.88Z" transform="translate(-92.49 -0.74)"/><path class="cls-3" d="M297.37,3.79h32.38C335.07,3.79,342,9,342,17s-10,13.79-10,13.79-3.77,3.49,4.48,3.49h12.57l475.82-.19h14.44c10.36,0,22.91,6.28,22.91,21.91l-.2,7.44,0,372.36s.07-4.43.07,7.44-11.27,21.82-20.27,21.82-7.44-.2-7.44-.2l-37.18,0c-6.69,0-9.54-.6-9.54,2.91s6.19,9.15,6.19,9.15,3.21,2.8,3.21,6.37a18.7,18.7,0,0,1-.46,5s-.58,8.53-13.82,8.53c-16.57,0-32.74,0-32.74,0l-4.93-.05a9.55,9.55,0,0,1-6.28-3.09c-4.39-4.8-9.16-9.8-13.54-11.4v14.54H710.84V454.7H737s6.32-.07,7.44-.07,11,1.91,11,13.28-10.21,12.61-10.21,12.61S742.56,485,749,485a64.23,64.23,0,0,1,8.43.33s3.84,0,11.61,0,10.78.23,10.78-1.64c0-2.92-9.64-10.69-9.64-18.77s8.42-10.41,8.42-10.41l1.85-.22,1.81-.17H826.4l8.83-.29s6.29-.25,9.76-3.95c4.78-5.09,4.78-9.8,4.78-9.8l-.2-5.7V68.93s-.18-8.29-.18-9.44-2.17-12.06-13-12.06-6.3,0-6.3,0l-16,0-465-.49-8.73,0s-2.27.17-7.76,0C324.86,46.74,312.39,31,312.39,31l-.1,15.42H297.37V3.79ZM378.17,32l-43.39-.1c4.9-3.64,9.52-7.76,9.52-15a15.48,15.48,0,0,0-15-15.4H327l-32.12-.21V48.88h19.51V36.53C321.73,44.19,325.84,49.1,333,49.1l495.65.4s-1.08.09,6.87.09,11.78,6.82,11.78,13.06.26,370.23.26,370.23l.08,7.45a19.17,19.17,0,0,1-4.46,7.81c-3.39,3.49-6.87,3.33-6.87,3.33l-7.66.29-42.18,0s-1.62-.07-5.2-.07c-4.41,0-13.76,4.09-13.76,12.9s8.65,17.81,8.65,17.81l-26-.09c2-1.38,5.46-3.44,7.31-11l.37-3.57v-1.78l-.41-2.51C755.64,457,751,452.6,744.3,451.79H707.93v48H728.3V488.15c6.91,4.58,7.16,9.5,16,11.64h42.18a13.11,13.11,0,0,0,9.27-3.77c2.44-3.41,4.13-6.1,4.13-10.73,0-10.22-7-10.08-9-17.5h45l4.07.07c15.46,0,25.11-13.44,25.11-24.22,0-4.72,0-7.85,0-7.85l0-372.36L865.1,56c0-12.49-8.16-24.37-25-24.37l-5.67-.16,2.91,0Z" transform="translate(-92.49 -0.74)"/><polygon class="cls-1" points="305.62 68.5 323.08 68.5 323.08 90.32 337.62 90.32 337.62 68.5 352.17 68.5 352.17 90.32 368.17 90.32 368.17 80.14 381.26 80.14 381.26 90.32 397.26 90.32 397.26 58.32 381.26 58.32 381.26 69.96 368.17 69.96 368.17 58.32 305.62 58.32 305.62 68.5"/><polygon class="cls-1" points="401.62 91.78 446.71 91.78 446.71 81.59 419.08 81.59 419.08 78.69 440.89 78.69 440.89 71.41 419.08 71.41 419.08 68.5 446.71 68.5 446.71 58.32 401.62 58.32 401.62 91.78"/><path class="cls-3" d="M240.31,46.3l12-43h22.43l13.82,43.18-11.23.09-2.82-6.39H254.84l-2.44,6.3-4.23-.1-7.27-.05Zm-3.73,2.56,17.89.07,2-5.87H273l2.2,5.82h16.85L276.65.93,250.73.74Z" transform="translate(-92.49 -0.74)"/><path class="cls-3" d="M653.36,496.88c3.66-13.38,11.51-40.7,12.77-42.18H689c2.85,11.81,7.72,25.79,12.12,42.18h-6.3l-5.57-.09L687,491l-5.28,0-8.73,0-5.57.09-2,5.44-5.48.33-5.81,0Zm16.51-3.46,6-.17,8.8.06,2.1,6.63,6.57.05,11.66-.2-14.21-48.1-26.51.1-15.09,47.84,12.18.16,5.87,0Z" transform="translate(-92.49 -0.74)"/><path class="cls-3" d="M678.06,468.47l2.76,11.12h-6.38ZM671,482.17l13.68.17c-1-4.1-6.88-21.47-6.88-21.47Z" transform="translate(-92.49 -0.74)"/><path class="cls-3" d="M267.6,28.74l-5.8-.08,2.85-9.4Zm-9.37,2.62,13.34.07-7-20.1Z" transform="translate(-92.49 -0.74)"/><path class="cls-3" d="M737,470.7H728.3v-4.36H737s3-.12,3,2.13S737,470.7,737,470.7Zm-11.63,2.91,8.73.06s4.33.06,5.36.06a5,5,0,0,0,4-4.68c0-3-2.49-5.47-3.89-5.47s-5.46-.15-5.46-.15h-8.72Z" transform="translate(-92.49 -0.74)"/><path class="cls-3" d="M323.67,20.2c-4.78,0-8.65,0-8.65,0V15l4.81,0c1.54,0,2.69-.07,3.58-.09C329,14.93,328.44,20.2,323.67,20.2ZM312.3,22.7l8.73.06s3.27,0,4.85,0a5.22,5.22,0,0,0,4.73-4.91,5.06,5.06,0,0,0-5.26-5.22c-.84,0-4.33-.15-4.33-.15H312.3Z" transform="translate(-92.49 -0.74)"/></svg>