<?xml version="1.0" encoding="UTF-8"?>
<svg width="644px" height="416px" viewBox="0 0 644 416" version="1.1" xmlns="http://www.w3.org/2000/svg" xmlns:xlink="http://www.w3.org/1999/xlink">
    <!-- Generator: Sketch 48 (47235) - http://www.bohemiancoding.com/sketch -->
    <title>clone_wars_logo</title>
    <desc>Created with Sketch.</desc>
    <defs></defs>
    <g id="Page-1" stroke="none" stroke-width="1" fill="none" fill-rule="evenodd">
        <g id="clone_wars_logo">
            <path d="M384.790987,243.867837 L406.578947,243.867837 L411.122961,243.993351 L414.734868,247.834068 L415.117697,251.181098 L414.901316,254.528129 L411.630625,257.339634 L408.126908,258.502727 L384.824276,258.502727 L384.824276,243.867837 L384.790987,243.867837 Z M340,322.974897 L383.584243,322.974897 L383.584243,291.353829 C397.73227,300.758984 407.194803,323 428.37523,323 L515.527072,323 C533.153849,323 549.424079,308.147553 549.424079,290.14053 L549.424079,285.278969 C549.424079,265.305566 528.876151,256.645125 526.421053,247.54957 L593,247.54957 L593,211.025103 L513.105263,211.025103 C506.597171,211.025103 497.142961,213.660889 491.575296,217.376093 C482.528882,223.409115 484.135099,225.651625 478.317763,232.027718 C477.801776,235.583937 476.79477,237.692566 476.79477,241.457975 L476.79477,248.754501 L476.711546,251.214569 L479.208257,260.879118 L497.35102,282.810534 L441.674375,282.810534 C437.271842,282.810534 439.177664,283.245648 435.615691,281.597236 C437.488224,274.760926 454.990164,271.740232 454.990164,249.951065 L454.990164,243.867837 C454.990164,229.642959 437.513191,211 416.249539,211 L340,211 L340,322.974897 Z" id="Shape" fill="#FDE901"></path>
            <rect id="Rectangle-path" fill="#FDE901" fill-rule="nonzero" x="30" y="336" width="584" height="27"></rect>
            <polygon id="Shape" fill="#FDE901" points="86.0759204 322.815927 124.088079 322.89123 136.602646 281.617063 149.987209 323 188.860999 322.974899 223 211.033468 182.729196 211 171.578182 249.663678 159.724478 211.033468 117.036088 211.008367 106.002189 250.433438 95.2359807 211.033468 51 211.167339"></polygon>
            <path d="M381,199 L421.173367,199 L421.173367,160.240929 C433.627111,161.315026 452.977283,186.793599 454.040203,199 L493,199 L493,90 L454.040203,90 L454.040203,127.543427 C447.620834,123.380261 438.138245,110.615996 426.496338,102.872508 C417.038858,96.5528225 397.094455,90 385.871021,90 L381,90 L381,199 Z" id="Shape" fill="#FDE901"></path>
            <polygon id="Shape" fill="#FDE901" points="503 199 614 199 614 166.294172 542.034902 166.294172 542.034902 157.817967 595.702652 157.817967 595.702652 131.173707 543.250812 131.173707 543.250812 122.697502 614 122.697502 614 90 503 90"></polygon>
            <path d="M309.40465,121.532185 L313.307644,121.716682 C322.76361,124.308024 330.368586,131.654352 330.368586,142.447416 L330.368586,148.552584 C330.368586,157.391659 324.44709,167.178377 315.744922,169.283318 L309.974186,169.786491 L301.875055,169.853581 C298.106069,169.853581 295.526408,168.847235 291.698794,167.74864 C287.167635,163.287171 284.44559,160.016546 282.854241,153.424977 L282.854241,142.447416 C282.854241,138.673617 283.867679,136.577063 284.386962,133.004533 C286.531096,129.977108 288.574723,124.786038 296.255078,122.94107 L301.71592,121.540571 L309.40465,121.532185 Z M295.032252,91.2411605 C283.231139,91.2411605 264.989249,96.4406165 256.345709,104.952629 C247.199637,113.883953 239,126.463282 239,140.007026 L239,146.112194 C239,181.686537 267.47678,201 301.129633,201 L314.530471,201 C342.111069,201 373,182.407752 373,152.208976 L373,140.007026 C373,114.252947 348.066067,91.2160018 323.056754,91.2160018 L319.363148,91.4424297 L309.655916,90 L299.906807,90 C297.092631,90.7547597 297.536534,91.2411605 295.032252,91.2411605 Z" id="Shape" fill="#FDE901"></path>
            <path d="M266.071011,246.311622 L276.822891,279.029878 L255.937343,279.18046 L266.071011,246.311622 Z M201,322.983269 L242.253133,322.983269 L247.157059,307.18046 L285.586466,307.331043 L290.899749,323 L331,323 C330.874687,317.035255 300.924812,219.625037 296.973266,211.050194 L239.863826,211 L234.776107,211.225874 C234.776107,211.225874 201.167084,315.270093 201,322.983269 Z" id="Shape" fill="#FDE901"></path>
            <path d="M76.7138505,90.3995113 C53.1255371,91.697923 34.0843684,112.572389 31,132.414783 L31,152.989615 C31,176.510843 58.5837825,199 82.0634325,199 L138,199 L138,166.265043 L91.7846262,166.265043 C83.3678075,164.243803 76.7961464,157.700107 74.7662683,149.319105 L74.7662683,144.5 C74.6594594,134.179541 81.7129385,125.148388 91.7846262,122.709988 L138,122.709988 L138,90 L82.0634325,90 L76.7138505,90.3995113 Z" id="Shape" fill="#FDE901"></path>
            <rect id="Rectangle-path" fill="#FDE901" fill-rule="nonzero" x="380" y="49" width="234" height="27"></rect>
            <polygon id="Shape" fill="#FDE901" points="148 199 235 199 235 166.294172 187.873962 166.294172 187.873962 90 148 90"></polygon>
            <rect id="Rectangle-path" fill="#FDE901" fill-rule="nonzero" x="30" y="49" width="218" height="27"></rect>
            <path d="M83.2609967,31.408025 C82.1022545,35.7186505 78.2663157,38.7645932 73.8108735,38.9119333 C69.0649967,38.9119333 67.9826038,38.8285565 67.9826038,38.8285565 L66.750341,38.8285565 L38.7746461,38.7118291 L22.5220996,38.7118291 C16.4440468,40.4794164 13.5881947,43.3392392 12.1894099,50.8431475 L12.2560187,57.0463783 L12.2560187,360.237624 L12.0978228,366.440855 C14.4041524,372.368942 17.6097008,376.837936 26.0523659,378.405419 L30.3985899,378.405419 L424.223104,378.33038 L429.218764,391.904117 C430.051374,390.920271 432.873922,379.164148 432.890574,378.380406 L446.861769,378.43877 L451.191341,391.35383 L455.512587,378.413757 L467.019256,378.588848 L456.719871,413.607087 L445.596202,413.682126 L440.450672,395.764461 C440.450672,395.764461 435.921274,409.388223 434.314337,413.573736 L423.140711,413.431996 L414.589807,386.751433 L387.688179,386.83481 L24.3621676,386.83481 L18.2508105,386.751433 C7.91812078,386.751433 1.25724105,375.995831 1.25724105,368.808755 L1.31552375,362.605524 L1.31552375,54.5784263 L1.66521993,45.1235018 L2.3979167,42.2803544 C10.9654733,25.6550287 25.5444738,27.6143825 25.5444738,27.6143825 L59.481656,27.6143825 C65.0601428,27.6143825 68.0575387,28.3314226 68.0575387,25.5799896 C68.0575387,23.5455967 60.3725487,17.8426264 60.3725487,14.3824909 C60.3725487,11.7644607 60.1643962,2.34288692 69.5312583,2.34288692 C74.3770483,2.34288692 74.3354178,2.40125065 74.3354178,2.40125065 L123.650906,2.40125065 L123.650906,10.9390307 L112.735389,10.7806149 L106.698967,10.8723293 L106.698967,37.9114122 L97.0073872,37.9114122 L97.1739092,16.9588327 L97.1739092,11.0474205 L90.9709649,10.9390307 C90.9709649,10.9390307 80.3884923,11.0724336 76.3253556,11.0724336 C72.262219,11.0724336 78.4984676,19.8936946 82.2202342,24.5127671 C82.2202342,24.487754 84.2518025,26.830641 83.2609967,31.408025 Z M58.2826977,13.3402814 C58.2826977,18.6680563 62.8787047,21.427827 65.5430566,25.4715998 L26.7684104,25.4715998 C26.7684104,25.4715998 15.0619143,23.8874414 7.68498999,31.7998958 C1.66521993,37.6779573 0.832609967,41.2798332 0.0666087973,44.706618 L0.141543694,50.9598749 L0.141543694,363.856175 L0,370.076081 C0,381.748828 10.5824727,389.361126 19.6579213,389.361126 L24.3621676,389.319437 L412.025368,389.319437 L412.857978,389.411152 L421.608709,416 L435.571578,416 C436.562384,413.84888 440.026041,402.342887 440.026041,402.342887 L443.356481,416 L457.852221,416 L470,375.979156 L454.804868,376.204273 L451.274602,386.026055 L448.618576,375.954143 L431.133767,375.954143 L429.252068,386.793121 L426.354586,375.954143 L30.4152421,375.954143 L25.2114298,376.029182 C25.2114298,376.029182 21.7727506,376.029182 17.9344187,372.26889 C16.2767938,370.692542 15.1186144,368.66291 14.6039788,366.432517 L14.6622615,360.229286 L14.6622615,55.845753 C14.6622615,55.845753 14.5956527,54.1782178 14.5956527,51.9270453 C14.5956527,49.6758729 15.1701536,46.0906722 17.7762228,43.5893695 C20.382292,41.0880667 25.810909,40.6044815 25.810909,40.6044815 L32.3052667,40.6628452 L70.7718472,40.6628452 C70.7718472,40.6628452 69.4646495,40.746222 74.102287,40.746222 C85.0760864,40.746222 86.6996758,28.6315789 84.3683679,24.2542991 C83.7439104,23.0870245 80.7714929,19.2100052 78.9813814,16.4168838 C78.3630161,15.4913271 77.8833391,14.4800767 77.5576184,13.4153205 L94.5095573,13.4153205 L94.5095573,40.0958833 L109.071906,40.0958833 L109.071906,13.4153205 L126.023845,13.4153205 L126.023845,0 L71.6044571,0 C62.6122695,0 58.2826977,5.37780094 58.2826977,13.3402814 Z" id="Shape" fill="#CAC42D"></path>
            <path d="M171.074309,2.08625799 L198.04865,2.08625799 C202.480506,2.08625799 208.253582,6.43401965 208.253582,13.1100452 C208.253582,19.7860708 199.923026,24.6178443 199.923026,24.6178443 C199.923026,24.6178443 196.782406,27.5302605 203.655115,27.5302605 L214.126624,27.5302605 L610.511163,27.3717049 L622.540487,27.3717049 C631.170943,27.3717049 641.625791,32.6123849 641.625791,45.6556699 L641.45918,51.8643737 L641.45918,362.599984 C641.45918,362.599984 641.517494,358.903135 641.517494,368.808688 C641.517494,378.714241 632.128957,387.017548 624.631456,387.017548 C617.133955,387.017548 618.433522,386.850647 618.433522,386.850647 L587.460513,386.850647 C581.887371,386.850647 579.513162,386.349945 579.513162,389.279051 C579.513162,392.208158 584.669777,396.914756 584.669777,396.914756 C584.669777,396.914756 587.343885,399.251365 587.343885,402.230541 C587.404083,403.632315 587.275185,405.035816 586.96068,406.403057 C586.96068,406.403057 586.477507,413.521369 575.447851,413.521369 L548.173609,413.521369 L544.066644,413.479644 C542.059864,413.314278 540.190328,412.392796 538.835055,410.901029 C535.177941,406.895414 531.204265,402.722898 527.555482,401.387693 L527.555482,413.521369 L515.517827,413.521369 L515.517827,378.405475 L537.310563,378.405475 C537.310563,378.405475 542.575475,378.34706 543.508497,378.34706 C544.441519,378.34706 552.672109,379.940961 552.672109,389.429262 C552.672109,398.917563 544.166611,399.952347 544.166611,399.952347 C544.166611,399.952347 541.942353,403.690922 547.307231,403.690922 C549.651585,403.632598 551.997262,403.724581 554.32989,403.966308 L564.001666,403.966308 C570.474508,403.966308 572.982006,404.158243 572.982006,402.597722 C572.982006,400.160973 564.95135,393.676883 564.95135,386.934097 C564.95135,380.191312 571.965678,378.246919 571.965678,378.246919 L573.506831,378.063328 L575.014662,377.921463 L611.785738,377.921463 L619.141619,377.679457 C619.141619,377.679457 624.381539,377.470831 627.272243,374.383169 C631.254249,370.135548 631.254249,366.205038 631.254249,366.205038 L631.087637,361.44837 L631.087637,56.4457963 C631.087637,56.4457963 630.937687,49.5277648 630.937687,48.5680861 C630.937687,47.6084074 629.129957,38.5039775 620.107964,38.5039775 L601.530823,38.5039775 L214.159947,38.095071 L206.887371,38.095071 C206.887371,38.095071 204.996335,38.2369365 200.422859,38.095071 C193.975008,37.9281703 183.586804,24.79309 183.586804,24.79309 L183.503499,37.6611293 L171.074309,37.6611293 L171.074309,2.08625799 Z M238.385205,25.6275932 L202.23892,25.5441429 C206.320893,22.5065512 210.16961,19.0683981 210.16961,13.0265949 C210.137065,6.07158434 204.613462,0.390830874 197.673775,0.175245671 L195.757747,0.175245671 L169,0 L169,39.7140072 L185.252916,39.7140072 L185.252916,29.4078927 C191.367544,35.8001872 194.791403,39.8975979 200.756081,39.8975979 L613.660113,40.2313991 C613.660113,40.2313991 612.760413,40.3065044 619.383206,40.3065044 C626.005998,40.3065044 629.196601,45.9978162 629.196601,51.2051162 C629.196601,56.4124161 629.413196,360.163235 629.413196,360.163235 L629.47984,366.380284 C628.77571,368.817555 627.502075,371.05172 625.764412,372.897754 C622.940353,375.81017 620.04132,375.676649 620.04132,375.676649 L613.660113,375.918655 L578.538487,375.918655 C578.538487,375.918655 577.188937,375.86024 574.206598,375.86024 C570.516161,375.901965 562.71043,379.239978 562.71043,386.625331 C562.71043,394.010685 569.916361,401.487833 569.916361,401.487833 L548.256914,401.412728 C549.923026,400.261114 552.805398,398.542037 554.346551,392.233193 L554.654782,389.254016 L554.654782,387.768601 L554.313229,385.673998 C552.822059,380.291452 548.956681,376.619638 543.375208,375.94369 L513.093635,375.94369 L513.093635,415.999844 L530.062979,415.999844 L530.062979,406.286227 C535.819394,410.108251 536.027657,414.214007 543.391869,415.999844 L578.538487,415.999844 C581.42664,416.015292 584.203309,414.884091 586.260913,412.853767 C588.293569,410.008111 589.701433,407.763297 589.701433,403.899547 C589.701433,395.370925 583.870043,395.487755 582.203932,389.295742 L619.691436,389.295742 L623.081973,389.354157 C635.961013,389.354157 644,378.138434 644,369.142489 L644,51.8560287 L644,45.6556699 C644,35.232725 637.202266,25.318827 623.173609,25.318827 L618.450183,25.1853065 L620.874375,25.1853065 L238.385205,25.6275932 Z" id="Shape" fill="#CAC42D"></path>
            <polygon id="Shape" fill="#FDE901" points="255 57.589375 269.48014 57.589375 269.48014 76 281.538629 76 281.538629 57.589375 293.605412 57.589375 293.605412 76 306.874727 76 306.874727 67.410625 317.730685 67.410625 317.730685 76 331 76 331 49 317.730685 49 317.730685 58.82125 306.874727 58.82125 306.874727 49 255 49"></polygon>
            <polygon id="Shape" fill="#FDE901" points="335 77 372 77 372 68.4728033 349.327345 68.4728033 349.327345 66.0460251 367.224218 66.0460251 367.224218 59.9539749 349.327345 59.9539749 349.327345 57.5188285 372 57.5188285 372 49 335 49"></polygon>
            <path d="M123.093204,37.8169745 L133.044529,2.12492218 L151.645214,2.12492218 L163.105823,37.9663831 L153.793041,38.0410874 L151.437894,32.7370824 L135.1426,32.7370824 L133.119164,37.9663831 L129.611321,37.8833783 L123.582477,37.8833783 L123.093204,37.8169745 Z M120,39.9418967 L134.835767,40 L136.494321,35.1276198 L150.202271,35.1276198 L152.026681,39.9584976 L166,39.9584976 L153.229133,0.157709068 L131.734271,0 L120,39.9418967 Z" id="Shape" fill="#CAC42D"></path>
            <path d="M467.511736,413.421762 C470.59398,402.329534 477.204802,379.680829 478.265902,378.453886 L497.525712,378.453886 C499.92582,388.24456 504.027056,399.834197 507.732485,413.421762 L502.426984,413.421762 L497.736248,413.34715 L495.841426,408.54715 L484.051424,408.54715 L479.360688,408.621762 L477.676402,413.131606 L473.061459,413.405181 L468.168608,413.405181 L467.511736,413.421762 Z M481.415517,410.553368 L486.468375,410.412435 L493.879233,410.462176 L495.647733,415.958549 L501.180613,416 L511,415.834197 L499.033148,376 L476.707938,376.082902 L464,415.701554 L474.257302,415.834197 L479.200681,415.834197 L481.415517,410.553368 Z" id="Shape" fill="#CAC42D"></path>
            <path d="M487.676901,390.371681 L489.896199,399.694457 L484.806287,399.694457 L487.676901,390.371681 Z M482,401.857476 L493,402 C492.195906,398.562646 487.467836,384 487.467836,384 L482,401.857476 Z" id="Shape" fill="#CAC42D"></path>
            <path d="M145.726387,23.7248756 L140.943778,23.6572139 L143.293853,15.7069652 L145.726387,23.7248756 Z M138,25.940796 L149,26 L143.227886,9 L138,25.940796 Z" id="Shape" fill="#CAC42D"></path>
            <path d="M537.643449,391.352427 L530.429519,391.352427 L530.429519,387.507767 L537.643449,387.507767 C537.643449,387.507767 540.131012,387.402913 540.131012,389.368932 C540.131012,391.334951 537.643449,391.352427 537.643449,391.352427 Z M528,393.895146 L535.238806,393.947573 C535.238806,393.947573 538.829187,394 539.68325,394 C541.548536,393.600794 542.916265,391.914479 543,389.91068 C543,387.28932 540.935323,385.131068 539.774461,385.131068 C538.613599,385.131068 535.247098,385 535.247098,385 L528.016584,385 L528,393.895146 Z" id="Shape" fill="#CAC42D"></path>
            <path d="M192.313224,16.7237354 L185.227966,16.7237354 L185.227966,12.1712062 L189.167861,12.1712062 C190.429283,12.1712062 191.371254,12.1099222 192.100257,12.0924125 C196.679054,12.1099222 196.261311,16.7237354 192.313224,16.7237354 Z M183,18.9474708 L190.150787,19 L194.123446,19 C196.232918,18.7908878 197.881054,16.9622692 197.997813,14.7013619 C198.071399,12.2576048 196.278701,10.2122026 193.99239,10.131323 L193.689321,10.131323 C193.001273,10.131323 190.142596,10 190.142596,10 L183,10 L183,18.9474708 Z" id="Shape" fill="#CAC42D"></path>
        </g>
    </g>
</svg>